<svg width="303" height="80" viewBox="0 0 303 80" fill="none" xmlns="http://www.w3.org/2000/svg">
<rect width="303" height="80" rx="12" fill="url(#paint0_linear_14_30)"/>
<path d="M65.1708 50.36C63.1908 50.36 61.4608 49.91 59.9808 49.01C58.5008 48.11 57.3508 46.86 56.5308 45.26C55.7108 43.64 55.3008 41.76 55.3008 39.62C55.3008 37.46 55.7208 35.56 56.5608 33.92C57.4208 32.26 58.6308 30.97 60.1908 30.05C61.7708 29.11 63.6408 28.64 65.8008 28.64C68.2608 28.64 70.3008 29.23 71.9208 30.41C73.5408 31.59 74.5908 33.22 75.0708 35.3H70.7808C70.4608 34.32 69.8808 33.56 69.0408 33.02C68.2008 32.46 67.1208 32.18 65.8008 32.18C63.7008 32.18 62.0808 32.85 60.9408 34.19C59.8008 35.51 59.2308 37.33 59.2308 39.65C59.2308 41.97 59.7908 43.77 60.9108 45.05C62.0508 46.31 63.5908 46.94 65.5308 46.94C67.4308 46.94 68.8608 46.43 69.8208 45.41C70.8008 44.37 71.3908 43.01 71.5908 41.33H66.2808V38.45H75.4608V50H71.9208L71.6208 47.24C70.9408 48.24 70.0908 49.01 69.0708 49.55C68.0508 50.09 66.7508 50.36 65.1708 50.36ZM85.4339 50.36C83.9339 50.36 82.6039 50.04 81.4439 49.4C80.2839 48.76 79.3739 47.86 78.7139 46.7C78.0539 45.54 77.7239 44.2 77.7239 42.68C77.7239 41.14 78.0439 39.77 78.6839 38.57C79.3439 37.37 80.2439 36.44 81.3839 35.78C82.5439 35.1 83.9039 34.76 85.4639 34.76C86.9239 34.76 88.2139 35.08 89.3339 35.72C90.4539 36.36 91.3239 37.24 91.9439 38.36C92.5839 39.46 92.9039 40.69 92.9039 42.05C92.9039 42.27 92.8939 42.5 92.8739 42.74C92.8739 42.98 92.8639 43.23 92.8439 43.49H81.5339C81.6139 44.65 82.0139 45.56 82.7339 46.22C83.4739 46.88 84.3639 47.21 85.4039 47.21C86.1839 47.21 86.8339 47.04 87.3539 46.7C87.8939 46.34 88.2939 45.88 88.5539 45.32H92.4539C92.1739 46.26 91.7039 47.12 91.0439 47.9C90.4039 48.66 89.6039 49.26 88.6439 49.7C87.7039 50.14 86.6339 50.36 85.4339 50.36ZM85.4639 37.88C84.5239 37.88 83.6939 38.15 82.9739 38.69C82.2539 39.21 81.7939 40.01 81.5939 41.09H89.0039C88.9439 40.11 88.5839 39.33 87.9239 38.75C87.2639 38.17 86.4439 37.88 85.4639 37.88ZM101.6 50C100.04 50 98.7899 49.62 97.8499 48.86C96.9099 48.1 96.4399 46.75 96.4399 44.81V38.33H93.8899V35.12H96.4399L96.8899 31.13H100.28V35.12H104.3V38.33H100.28V44.84C100.28 45.56 100.43 46.06 100.73 46.34C101.05 46.6 101.59 46.73 102.35 46.73H104.21V50H101.6ZM120.205 50.36C118.665 50.36 117.305 50.1 116.125 49.58C114.945 49.04 114.015 48.28 113.335 47.3C112.655 46.3 112.305 45.09 112.285 43.67H116.335C116.375 44.65 116.725 45.48 117.385 46.16C118.065 46.82 118.995 47.15 120.175 47.15C121.195 47.15 122.005 46.91 122.605 46.43C123.205 45.93 123.505 45.27 123.505 44.45C123.505 43.59 123.235 42.92 122.695 42.44C122.175 41.96 121.475 41.57 120.595 41.27C119.715 40.97 118.775 40.65 117.775 40.31C116.155 39.75 114.915 39.03 114.055 38.15C113.215 37.27 112.795 36.1 112.795 34.64C112.775 33.4 113.065 32.34 113.665 31.46C114.285 30.56 115.125 29.87 116.185 29.39C117.245 28.89 118.465 28.64 119.845 28.64C121.245 28.64 122.475 28.89 123.535 29.39C124.615 29.89 125.455 30.59 126.055 31.49C126.675 32.39 127.005 33.46 127.045 34.7H122.935C122.915 33.96 122.625 33.31 122.065 32.75C121.525 32.17 120.765 31.88 119.785 31.88C118.945 31.86 118.235 32.07 117.655 32.51C117.095 32.93 116.815 33.55 116.815 34.37C116.815 35.07 117.035 35.63 117.475 36.05C117.915 36.45 118.515 36.79 119.275 37.07C120.035 37.35 120.905 37.65 121.885 37.97C122.925 38.33 123.875 38.75 124.735 39.23C125.595 39.71 126.285 40.35 126.805 41.15C127.325 41.93 127.585 42.94 127.585 44.18C127.585 45.28 127.305 46.3 126.745 47.24C126.185 48.18 125.355 48.94 124.255 49.52C123.155 50.08 121.805 50.36 120.205 50.36ZM136.576 50C135.016 50 133.766 49.62 132.826 48.86C131.886 48.1 131.416 46.75 131.416 44.81V38.33H128.866V35.12H131.416L131.866 31.13H135.256V35.12H139.276V38.33H135.256V44.84C135.256 45.56 135.406 46.06 135.706 46.34C136.026 46.6 136.566 46.73 137.326 46.73H139.186V50H136.576ZM146.803 50.36C145.523 50.36 144.473 50.16 143.653 49.76C142.833 49.34 142.223 48.79 141.823 48.11C141.423 47.43 141.223 46.68 141.223 45.86C141.223 44.48 141.763 43.36 142.843 42.5C143.923 41.64 145.543 41.21 147.703 41.21H151.483V40.85C151.483 39.83 151.193 39.08 150.613 38.6C150.033 38.12 149.313 37.88 148.453 37.88C147.673 37.88 146.993 38.07 146.413 38.45C145.833 38.81 145.473 39.35 145.333 40.07H141.583C141.683 38.99 142.043 38.05 142.663 37.25C143.303 36.45 144.123 35.84 145.123 35.42C146.123 34.98 147.243 34.76 148.483 34.76C150.603 34.76 152.273 35.29 153.493 36.35C154.713 37.41 155.323 38.91 155.323 40.85V50H152.053L151.693 47.6C151.253 48.4 150.633 49.06 149.833 49.58C149.053 50.1 148.043 50.36 146.803 50.36ZM147.673 47.36C148.773 47.36 149.623 47 150.223 46.28C150.843 45.56 151.233 44.67 151.393 43.61H148.123C147.103 43.61 146.373 43.8 145.933 44.18C145.493 44.54 145.273 44.99 145.273 45.53C145.273 46.11 145.493 46.56 145.933 46.88C146.373 47.2 146.953 47.36 147.673 47.36ZM158.087 50V35.12H161.507L161.867 37.91C162.407 36.95 163.137 36.19 164.057 35.63C164.997 35.05 166.097 34.76 167.357 34.76V38.81H166.277C165.437 38.81 164.687 38.94 164.027 39.2C163.367 39.46 162.847 39.91 162.467 40.55C162.107 41.19 161.927 42.08 161.927 43.22V50H158.087ZM175.712 50C174.152 50 172.902 49.62 171.962 48.86C171.022 48.1 170.552 46.75 170.552 44.81V38.33H168.002V35.12H170.552L171.002 31.13H174.392V35.12H178.412V38.33H174.392V44.84C174.392 45.56 174.542 46.06 174.842 46.34C175.162 46.6 175.702 46.73 176.462 46.73H178.322V50H175.712ZM187.658 50.36C186.158 50.36 184.828 50.04 183.668 49.4C182.508 48.76 181.598 47.86 180.938 46.7C180.278 45.54 179.948 44.2 179.948 42.68C179.948 41.14 180.268 39.77 180.908 38.57C181.568 37.37 182.468 36.44 183.608 35.78C184.768 35.1 186.128 34.76 187.688 34.76C189.148 34.76 190.438 35.08 191.558 35.72C192.678 36.36 193.548 37.24 194.168 38.36C194.808 39.46 195.128 40.69 195.128 42.05C195.128 42.27 195.118 42.5 195.098 42.74C195.098 42.98 195.088 43.23 195.068 43.49H183.758C183.838 44.65 184.238 45.56 184.958 46.22C185.698 46.88 186.588 47.21 187.628 47.21C188.408 47.21 189.058 47.04 189.578 46.7C190.118 46.34 190.518 45.88 190.778 45.32H194.678C194.398 46.26 193.928 47.12 193.268 47.9C192.628 48.66 191.828 49.26 190.868 49.7C189.928 50.14 188.858 50.36 187.658 50.36ZM187.688 37.88C186.748 37.88 185.918 38.15 185.198 38.69C184.478 39.21 184.018 40.01 183.818 41.09H191.228C191.168 40.11 190.808 39.33 190.148 38.75C189.488 38.17 188.668 37.88 187.688 37.88ZM204.297 50.36C202.897 50.36 201.647 50.02 200.547 49.34C199.447 48.66 198.577 47.73 197.937 46.55C197.297 45.37 196.977 44.03 196.977 42.53C196.977 41.03 197.297 39.7 197.937 38.54C198.577 37.36 199.447 36.44 200.547 35.78C201.647 35.1 202.897 34.76 204.297 34.76C205.417 34.76 206.397 34.97 207.237 35.39C208.077 35.81 208.757 36.4 209.277 37.16V28.4H213.117V50H209.697L209.277 47.87C208.797 48.53 208.157 49.11 207.357 49.61C206.577 50.11 205.557 50.36 204.297 50.36ZM205.107 47C206.347 47 207.357 46.59 208.137 45.77C208.937 44.93 209.337 43.86 209.337 42.56C209.337 41.26 208.937 40.2 208.137 39.38C207.357 38.54 206.347 38.12 205.107 38.12C203.887 38.12 202.877 38.53 202.077 39.35C201.277 40.17 200.877 41.23 200.877 42.53C200.877 43.83 201.277 44.9 202.077 45.74C202.877 46.58 203.887 47 205.107 47ZM235.362 51.1932L232.891 48.7429L239.379 42.255H224.176V38.6541H239.379L232.891 32.1768L235.362 29.7159L246.101 40.4545L235.362 51.1932Z" fill="#01221C"/>
<defs>
<linearGradient id="paint0_linear_14_30" x1="151.5" y1="0" x2="151.5" y2="186" gradientUnits="userSpaceOnUse">
<stop stop-color="#EDF1E4"/>
<stop offset="1" stop-color="#D7CEA5"/>
</linearGradient>
</defs>
</svg>
