<svg width="303" height="72" viewBox="0 0 303 72" fill="none" xmlns="http://www.w3.org/2000/svg">
<rect width="303" height="72" rx="10" fill="url(#paint0_linear_100_17)"/>
<path d="M89.4133 44.288C88.1813 44.288 87.0933 44.08 86.1493 43.664C85.2053 43.232 84.4613 42.624 83.9173 41.84C83.3733 41.04 83.0933 40.072 83.0773 38.936H86.3173C86.3493 39.72 86.6293 40.384 87.1573 40.928C87.7013 41.456 88.4453 41.72 89.3893 41.72C90.2053 41.72 90.8533 41.528 91.3333 41.144C91.8133 40.744 92.0533 40.216 92.0533 39.56C92.0533 38.872 91.8373 38.336 91.4053 37.952C90.9893 37.568 90.4293 37.256 89.7253 37.016C89.0213 36.776 88.2693 36.52 87.4693 36.248C86.1733 35.8 85.1813 35.224 84.4933 34.52C83.8213 33.816 83.4853 32.88 83.4853 31.712C83.4693 30.72 83.7013 29.872 84.1813 29.168C84.6773 28.448 85.3493 27.896 86.1973 27.512C87.0453 27.112 88.0213 26.912 89.1253 26.912C90.2453 26.912 91.2293 27.112 92.0773 27.512C92.9413 27.912 93.6133 28.472 94.0933 29.192C94.5893 29.912 94.8533 30.768 94.8853 31.76H91.5973C91.5813 31.168 91.3493 30.648 90.9013 30.2C90.4693 29.736 89.8613 29.504 89.0773 29.504C88.4053 29.488 87.8373 29.656 87.3733 30.008C86.9253 30.344 86.7013 30.84 86.7013 31.496C86.7013 32.056 86.8773 32.504 87.2293 32.84C87.5813 33.16 88.0613 33.432 88.6693 33.656C89.2773 33.88 89.9733 34.12 90.7573 34.376C91.5893 34.664 92.3493 35 93.0373 35.384C93.7253 35.768 94.2773 36.28 94.6933 36.92C95.1093 37.544 95.3173 38.352 95.3173 39.344C95.3173 40.224 95.0933 41.04 94.6453 41.792C94.1973 42.544 93.5333 43.152 92.6533 43.616C91.7733 44.064 90.6933 44.288 89.4133 44.288ZM101.67 44.288C100.182 44.288 99.0296 43.824 98.2136 42.896C97.4136 41.968 97.0136 40.608 97.0136 38.816V32.096H100.062V38.528C100.062 39.552 100.27 40.336 100.686 40.88C101.102 41.424 101.758 41.696 102.654 41.696C103.502 41.696 104.198 41.392 104.742 40.784C105.302 40.176 105.582 39.328 105.582 38.24V32.096H108.654V44H105.942L105.702 41.984C105.334 42.688 104.798 43.248 104.094 43.664C103.406 44.08 102.598 44.288 101.67 44.288ZM118.143 44.288C117.247 44.288 116.463 44.12 115.791 43.784C115.119 43.448 114.575 42.976 114.159 42.368L113.823 44H111.087V26.72H114.159V33.8C114.543 33.272 115.047 32.808 115.671 32.408C116.311 32.008 117.135 31.808 118.143 31.808C119.263 31.808 120.263 32.08 121.143 32.624C122.023 33.168 122.719 33.912 123.231 34.856C123.743 35.8 123.999 36.872 123.999 38.072C123.999 39.272 123.743 40.344 123.231 41.288C122.719 42.216 122.023 42.952 121.143 43.496C120.263 44.024 119.263 44.288 118.143 44.288ZM117.495 41.6C118.471 41.6 119.279 41.272 119.919 40.616C120.559 39.96 120.879 39.112 120.879 38.072C120.879 37.032 120.559 36.176 119.919 35.504C119.279 34.832 118.471 34.496 117.495 34.496C116.503 34.496 115.687 34.832 115.047 35.504C114.423 36.16 114.111 37.008 114.111 38.048C114.111 39.088 114.423 39.944 115.047 40.616C115.687 41.272 116.503 41.6 117.495 41.6ZM130.943 44.288C129.887 44.288 128.959 44.12 128.159 43.784C127.359 43.432 126.719 42.952 126.239 42.344C125.759 41.736 125.471 41.032 125.375 40.232H128.471C128.567 40.696 128.823 41.096 129.239 41.432C129.671 41.752 130.223 41.912 130.895 41.912C131.567 41.912 132.055 41.776 132.359 41.504C132.679 41.232 132.839 40.92 132.839 40.568C132.839 40.056 132.615 39.712 132.167 39.536C131.719 39.344 131.095 39.16 130.295 38.984C129.783 38.872 129.263 38.736 128.735 38.576C128.207 38.416 127.719 38.216 127.271 37.976C126.839 37.72 126.487 37.4 126.215 37.016C125.943 36.616 125.807 36.128 125.807 35.552C125.807 34.496 126.223 33.608 127.055 32.888C127.903 32.168 129.087 31.808 130.607 31.808C132.015 31.808 133.135 32.136 133.967 32.792C134.815 33.448 135.319 34.352 135.479 35.504H132.575C132.399 34.624 131.735 34.184 130.583 34.184C130.007 34.184 129.559 34.296 129.239 34.52C128.935 34.744 128.783 35.024 128.783 35.36C128.783 35.712 129.015 35.992 129.479 36.2C129.943 36.408 130.559 36.6 131.327 36.776C132.159 36.968 132.919 37.184 133.607 37.424C134.311 37.648 134.871 37.992 135.287 38.456C135.703 38.904 135.911 39.552 135.911 40.4C135.927 41.136 135.735 41.8 135.335 42.392C134.935 42.984 134.359 43.448 133.607 43.784C132.855 44.12 131.967 44.288 130.943 44.288ZM143.745 44.288C142.529 44.288 141.457 44.024 140.529 43.496C139.601 42.968 138.865 42.232 138.321 41.288C137.793 40.344 137.529 39.264 137.529 38.048C137.529 36.832 137.793 35.752 138.321 34.808C138.865 33.864 139.601 33.128 140.529 32.6C141.457 32.072 142.529 31.808 143.745 31.808C145.265 31.808 146.545 32.208 147.585 33.008C148.625 33.792 149.289 34.88 149.577 36.272H146.337C146.177 35.696 145.857 35.248 145.377 34.928C144.913 34.592 144.361 34.424 143.721 34.424C142.873 34.424 142.153 34.744 141.561 35.384C140.969 36.024 140.673 36.912 140.673 38.048C140.673 39.184 140.969 40.072 141.561 40.712C142.153 41.352 142.873 41.672 143.721 41.672C144.361 41.672 144.913 41.512 145.377 41.192C145.857 40.872 146.177 40.416 146.337 39.824H149.577C149.289 41.168 148.625 42.248 147.585 43.064C146.545 43.88 145.265 44.288 143.745 44.288ZM151.583 44V32.096H154.319L154.607 34.328C155.039 33.56 155.623 32.952 156.359 32.504C157.111 32.04 157.991 31.808 158.999 31.808V35.048H158.135C157.463 35.048 156.863 35.152 156.335 35.36C155.807 35.568 155.391 35.928 155.087 36.44C154.799 36.952 154.655 37.664 154.655 38.576V44H151.583ZM162.035 30.248C161.475 30.248 161.011 30.08 160.643 29.744C160.291 29.408 160.115 28.984 160.115 28.472C160.115 27.96 160.291 27.544 160.643 27.224C161.011 26.888 161.475 26.72 162.035 26.72C162.595 26.72 163.051 26.888 163.403 27.224C163.771 27.544 163.955 27.96 163.955 28.472C163.955 28.984 163.771 29.408 163.403 29.744C163.051 30.08 162.595 30.248 162.035 30.248ZM160.499 44V32.096H163.571V44H160.499ZM173.113 44.288C172.217 44.288 171.433 44.12 170.761 43.784C170.089 43.448 169.545 42.976 169.129 42.368L168.793 44H166.057V26.72H169.129V33.8C169.513 33.272 170.017 32.808 170.641 32.408C171.281 32.008 172.105 31.808 173.113 31.808C174.233 31.808 175.233 32.08 176.113 32.624C176.993 33.168 177.689 33.912 178.201 34.856C178.713 35.8 178.969 36.872 178.969 38.072C178.969 39.272 178.713 40.344 178.201 41.288C177.689 42.216 176.993 42.952 176.113 43.496C175.233 44.024 174.233 44.288 173.113 44.288ZM172.465 41.6C173.441 41.6 174.249 41.272 174.889 40.616C175.529 39.96 175.849 39.112 175.849 38.072C175.849 37.032 175.529 36.176 174.889 35.504C174.249 34.832 173.441 34.496 172.465 34.496C171.473 34.496 170.657 34.832 170.017 35.504C169.393 36.16 169.081 37.008 169.081 38.048C169.081 39.088 169.393 39.944 170.017 40.616C170.657 41.272 171.473 41.6 172.465 41.6ZM186.778 44.288C185.578 44.288 184.514 44.032 183.586 43.52C182.658 43.008 181.93 42.288 181.402 41.36C180.874 40.432 180.61 39.36 180.61 38.144C180.61 36.912 180.866 35.816 181.378 34.856C181.906 33.896 182.626 33.152 183.538 32.624C184.466 32.08 185.554 31.808 186.802 31.808C187.97 31.808 189.002 32.064 189.898 32.576C190.794 33.088 191.49 33.792 191.986 34.688C192.498 35.568 192.754 36.552 192.754 37.64C192.754 37.816 192.746 38 192.73 38.192C192.73 38.384 192.722 38.584 192.706 38.792H183.658C183.722 39.72 184.042 40.448 184.618 40.976C185.21 41.504 185.922 41.768 186.754 41.768C187.378 41.768 187.898 41.632 188.314 41.36C188.746 41.072 189.066 40.704 189.274 40.256H192.394C192.17 41.008 191.794 41.696 191.266 42.32C190.754 42.928 190.114 43.408 189.346 43.76C188.594 44.112 187.738 44.288 186.778 44.288ZM186.802 34.304C186.05 34.304 185.386 34.52 184.81 34.952C184.234 35.368 183.866 36.008 183.706 36.872H189.634C189.586 36.088 189.298 35.464 188.77 35C188.242 34.536 187.586 34.304 186.802 34.304ZM210.005 44.9545L208.028 42.9943L213.218 37.804H201.056V34.9233H213.218L208.028 29.7415L210.005 27.7727L218.596 36.3636L210.005 44.9545Z" fill="#01221C"/>
<defs>
<linearGradient id="paint0_linear_100_17" x1="151.5" y1="0" x2="151.5" y2="167.4" gradientUnits="userSpaceOnUse">
<stop stop-color="#EDF1E4"/>
<stop offset="1" stop-color="#D7CEA5"/>
</linearGradient>
</defs>
</svg>
