<svg width="485" height="450" viewBox="0 0 485 450" fill="none" xmlns="http://www.w3.org/2000/svg">
<mask id="mask0_74_432" style="mask-type:alpha" maskUnits="userSpaceOnUse" x="0" y="0" width="485" height="450">
<rect width="485" height="450" fill="url(#paint0_linear_74_432)"/>
</mask>
<g mask="url(#mask0_74_432)">
<path d="M210.6 110V90.16H215.12L215.56 92.84C216.2 91.88 217.04 91.12 218.08 90.56C219.147 89.9733 220.373 89.68 221.76 89.68C224.827 89.68 227 90.8667 228.28 93.24C229 92.1467 229.96 91.28 231.16 90.64C232.387 90 233.72 89.68 235.16 89.68C237.747 89.68 239.733 90.4533 241.12 92C242.507 93.5467 243.2 95.8133 243.2 98.8V110H238.08V99.28C238.08 97.5733 237.747 96.2667 237.08 95.36C236.44 94.4533 235.44 94 234.08 94C232.693 94 231.573 94.5067 230.72 95.52C229.893 96.5333 229.48 97.9467 229.48 99.76V110H224.36V99.28C224.36 97.5733 224.027 96.2667 223.36 95.36C222.693 94.4533 221.667 94 220.28 94C218.92 94 217.813 94.5067 216.96 95.52C216.133 96.5333 215.72 97.9467 215.72 99.76V110H210.6ZM253.701 110.48C251.994 110.48 250.594 110.213 249.501 109.68C248.408 109.12 247.594 108.387 247.061 107.48C246.528 106.573 246.261 105.573 246.261 104.48C246.261 102.64 246.981 101.147 248.421 100C249.861 98.8533 252.021 98.28 254.901 98.28H259.941V97.8C259.941 96.44 259.554 95.44 258.781 94.8C258.008 94.16 257.048 93.84 255.901 93.84C254.861 93.84 253.954 94.0933 253.181 94.6C252.408 95.08 251.928 95.8 251.741 96.76H246.741C246.874 95.32 247.354 94.0667 248.181 93C249.034 91.9333 250.128 91.12 251.461 90.56C252.794 89.9733 254.288 89.68 255.941 89.68C258.768 89.68 260.994 90.3867 262.621 91.8C264.248 93.2133 265.061 95.2133 265.061 97.8V110H260.701L260.221 106.8C259.634 107.867 258.808 108.747 257.741 109.44C256.701 110.133 255.354 110.48 253.701 110.48ZM254.861 106.48C256.328 106.48 257.461 106 258.261 105.04C259.088 104.08 259.608 102.893 259.821 101.48H255.461C254.101 101.48 253.128 101.733 252.541 102.24C251.954 102.72 251.661 103.32 251.661 104.04C251.661 104.813 251.954 105.413 252.541 105.84C253.128 106.267 253.901 106.48 254.861 106.48ZM271.507 87.08C270.574 87.08 269.8 86.8 269.187 86.24C268.6 85.68 268.307 84.9733 268.307 84.12C268.307 83.2667 268.6 82.5733 269.187 82.04C269.8 81.48 270.574 81.2 271.507 81.2C272.44 81.2 273.2 81.48 273.787 82.04C274.4 82.5733 274.707 83.2667 274.707 84.12C274.707 84.9733 274.4 85.68 273.787 86.24C273.2 86.8 272.44 87.08 271.507 87.08ZM268.947 110V90.16H274.067V110H268.947ZM278.211 110V90.16H282.731L283.131 93.52C283.744 92.3467 284.624 91.4133 285.771 90.72C286.944 90.0267 288.318 89.68 289.891 89.68C292.344 89.68 294.251 90.4533 295.611 92C296.971 93.5467 297.651 95.8133 297.651 98.8V110H292.531V99.28C292.531 97.5733 292.184 96.2667 291.491 95.36C290.798 94.4533 289.718 94 288.251 94C286.811 94 285.624 94.5067 284.691 95.52C283.784 96.5333 283.331 97.9467 283.331 99.76V110H278.211ZM303.547 110.28C302.614 110.28 301.84 109.987 301.227 109.4C300.64 108.813 300.347 108.107 300.347 107.28C300.347 106.427 300.64 105.707 301.227 105.12C301.84 104.533 302.614 104.24 303.547 104.24C304.48 104.24 305.24 104.533 305.827 105.12C306.44 105.707 306.747 106.427 306.747 107.28C306.747 108.107 306.44 108.813 305.827 109.4C305.24 109.987 304.48 110.28 303.547 110.28ZM309.756 118.8V90.16H314.316L314.876 93C315.516 92.12 316.356 91.3467 317.396 90.68C318.463 90.0133 319.836 89.68 321.516 89.68C323.383 89.68 325.05 90.1333 326.516 91.04C327.983 91.9467 329.143 93.1867 329.996 94.76C330.85 96.3333 331.276 98.12 331.276 100.12C331.276 102.12 330.85 103.907 329.996 105.48C329.143 107.027 327.983 108.253 326.516 109.16C325.05 110.04 323.383 110.48 321.516 110.48C320.023 110.48 318.716 110.2 317.596 109.64C316.476 109.08 315.57 108.293 314.876 107.28V118.8H309.756ZM320.436 106C322.063 106 323.41 105.453 324.476 104.36C325.543 103.267 326.076 101.853 326.076 100.12C326.076 98.3867 325.543 96.96 324.476 95.84C323.41 94.72 322.063 94.16 320.436 94.16C318.783 94.16 317.423 94.72 316.356 95.84C315.316 96.9333 314.796 98.3467 314.796 100.08C314.796 101.813 315.316 103.24 316.356 104.36C317.423 105.453 318.783 106 320.436 106ZM335.333 118.8L339.933 108.68H338.733L331.013 90.16H336.573L342.133 104.12L347.933 90.16H353.373L340.773 118.8H335.333Z" fill="#EDF1E4"/>
<path d="M143.42 56C123.26 56 124.519 64.7426 124.519 64.7426L124.542 73.7999H143.78V76.5193H116.9C116.9 76.5193 104 75.0563 104 95.398C104 115.74 115.26 115.018 115.26 115.018H121.98V105.579C121.98 105.579 121.617 94.3192 133.06 94.3192H152.141C152.141 94.3192 162.861 94.4925 162.861 83.9584V66.5406C162.861 66.5406 164.489 56 143.42 56ZM132.812 62.0906C134.727 62.0906 136.274 63.6376 136.274 65.5517C136.274 67.4658 134.727 69.0128 132.812 69.0128C130.898 69.0128 129.351 67.4658 129.351 65.5517C129.351 63.6376 130.898 62.0906 132.812 62.0906Z" fill="#D7CEA5"/>
<path d="M143.993 135C164.153 135 162.894 126.257 162.894 126.257L162.872 117.2H143.633V114.481H170.513C170.513 114.481 183.414 115.944 183.414 95.602C183.414 75.2603 172.154 75.9817 172.154 75.9817H165.434V85.421C165.434 85.421 165.796 96.6808 154.354 96.6808H135.273C135.273 96.6808 124.552 96.5075 124.552 107.042V124.459C124.552 124.459 122.925 135 143.993 135ZM154.601 128.909C152.687 128.909 151.14 127.362 151.14 125.448C151.14 123.534 152.687 121.987 154.601 121.987C156.515 121.987 158.062 123.534 158.062 125.448C158.062 127.362 156.515 128.909 154.601 128.909Z" fill="#D7CEA5"/>
<path d="M213.36 230.08C212.427 230.08 211.653 229.8 211.04 229.24C210.453 228.68 210.16 227.973 210.16 227.12C210.16 226.267 210.453 225.573 211.04 225.04C211.653 224.48 212.427 224.2 213.36 224.2C214.293 224.2 215.053 224.48 215.64 225.04C216.253 225.573 216.56 226.267 216.56 227.12C216.56 227.973 216.253 228.68 215.64 229.24C215.053 229.8 214.293 230.08 213.36 230.08ZM210.8 253V233.16H215.92V253H210.8ZM220.064 253V233.16H224.584L224.984 236.52C225.597 235.347 226.477 234.413 227.624 233.72C228.797 233.027 230.171 232.68 231.744 232.68C234.197 232.68 236.104 233.453 237.464 235C238.824 236.547 239.504 238.813 239.504 241.8V253H234.384V242.28C234.384 240.573 234.037 239.267 233.344 238.36C232.651 237.453 231.571 237 230.104 237C228.664 237 227.477 237.507 226.544 238.52C225.637 239.533 225.184 240.947 225.184 242.76V253H220.064ZM252.32 253.48C250.453 253.48 248.787 253.027 247.32 252.12C245.853 251.213 244.693 249.973 243.84 248.4C242.987 246.827 242.56 245.04 242.56 243.04C242.56 241.04 242.987 239.267 243.84 237.72C244.693 236.147 245.853 234.92 247.32 234.04C248.787 233.133 250.453 232.68 252.32 232.68C253.813 232.68 255.12 232.96 256.24 233.52C257.36 234.08 258.267 234.867 258.96 235.88V224.2H264.08V253H259.52L258.96 250.16C258.32 251.04 257.467 251.813 256.4 252.48C255.36 253.147 254 253.48 252.32 253.48ZM253.4 249C255.053 249 256.4 248.453 257.44 247.36C258.507 246.24 259.04 244.813 259.04 243.08C259.04 241.347 258.507 239.933 257.44 238.84C256.4 237.72 255.053 237.16 253.4 237.16C251.773 237.16 250.427 237.707 249.36 238.8C248.293 239.893 247.76 241.307 247.76 243.04C247.76 244.773 248.293 246.2 249.36 247.32C250.427 248.44 251.773 249 253.4 249ZM277.734 253.48C275.734 253.48 273.96 253.053 272.414 252.2C270.867 251.347 269.654 250.147 268.774 248.6C267.894 247.053 267.454 245.267 267.454 243.24C267.454 241.187 267.88 239.36 268.734 237.76C269.614 236.16 270.814 234.92 272.334 234.04C273.88 233.133 275.694 232.68 277.774 232.68C279.72 232.68 281.44 233.107 282.934 233.96C284.427 234.813 285.587 235.987 286.414 237.48C287.267 238.947 287.694 240.587 287.694 242.4C287.694 242.693 287.68 243 287.654 243.32C287.654 243.64 287.64 243.973 287.614 244.32H272.534C272.64 245.867 273.174 247.08 274.134 247.96C275.12 248.84 276.307 249.28 277.694 249.28C278.734 249.28 279.6 249.053 280.294 248.6C281.014 248.12 281.547 247.507 281.894 246.76H287.094C286.72 248.013 286.094 249.16 285.214 250.2C284.36 251.213 283.294 252.013 282.014 252.6C280.76 253.187 279.334 253.48 277.734 253.48ZM277.774 236.84C276.52 236.84 275.414 237.2 274.454 237.92C273.494 238.613 272.88 239.68 272.614 241.12H282.494C282.414 239.813 281.934 238.773 281.054 238C280.174 237.227 279.08 236.84 277.774 236.84ZM287.553 253L294.753 243.08L287.553 233.16H293.033L298.073 240.2L303.073 233.16H308.593L301.353 243.08L308.593 253H303.073L298.073 245.96L293.033 253H287.553ZM312.855 253.28C311.921 253.28 311.148 252.987 310.535 252.4C309.948 251.813 309.655 251.107 309.655 250.28C309.655 249.427 309.948 248.707 310.535 248.12C311.148 247.533 311.921 247.24 312.855 247.24C313.788 247.24 314.548 247.533 315.135 248.12C315.748 248.707 316.055 249.427 316.055 250.28C316.055 251.107 315.748 251.813 315.135 252.4C314.548 252.987 313.788 253.28 312.855 253.28ZM321.904 230.08C320.971 230.08 320.197 229.8 319.584 229.24C318.997 228.68 318.704 227.973 318.704 227.12C318.704 226.267 318.997 225.573 319.584 225.04C320.197 224.48 320.971 224.2 321.904 224.2C322.837 224.2 323.597 224.48 324.184 225.04C324.797 225.573 325.104 226.267 325.104 227.12C325.104 227.973 324.797 228.68 324.184 229.24C323.597 229.8 322.837 230.08 321.904 230.08ZM315.304 261.8V257.44H316.864C317.744 257.44 318.371 257.267 318.744 256.92C319.117 256.573 319.304 255.987 319.304 255.16V233.16H324.424V255.16C324.424 257.56 323.811 259.267 322.584 260.28C321.384 261.293 319.744 261.8 317.664 261.8H315.304ZM336.767 253.48C335.007 253.48 333.461 253.2 332.127 252.64C330.794 252.053 329.727 251.253 328.927 250.24C328.127 249.227 327.647 248.053 327.487 246.72H332.647C332.807 247.493 333.234 248.16 333.927 248.72C334.647 249.253 335.567 249.52 336.687 249.52C337.807 249.52 338.621 249.293 339.127 248.84C339.661 248.387 339.927 247.867 339.927 247.28C339.927 246.427 339.554 245.853 338.807 245.56C338.061 245.24 337.021 244.933 335.687 244.64C334.834 244.453 333.967 244.227 333.087 243.96C332.207 243.693 331.394 243.36 330.647 242.96C329.927 242.533 329.341 242 328.887 241.36C328.434 240.693 328.207 239.88 328.207 238.92C328.207 237.16 328.901 235.68 330.287 234.48C331.701 233.28 333.674 232.68 336.207 232.68C338.554 232.68 340.421 233.227 341.807 234.32C343.221 235.413 344.061 236.92 344.327 238.84H339.487C339.194 237.373 338.087 236.64 336.167 236.64C335.207 236.64 334.461 236.827 333.927 237.2C333.421 237.573 333.167 238.04 333.167 238.6C333.167 239.187 333.554 239.653 334.327 240C335.101 240.347 336.127 240.667 337.407 240.96C338.794 241.28 340.061 241.64 341.207 242.04C342.381 242.413 343.314 242.987 344.007 243.76C344.701 244.507 345.047 245.587 345.047 247C345.074 248.227 344.754 249.333 344.087 250.32C343.421 251.307 342.461 252.08 341.207 252.64C339.954 253.2 338.474 253.48 336.767 253.48Z" fill="#EDF1E4"/>
<path d="M104 199H183V278H104V199Z" fill="#D7CEA5"/>
<path d="M124.772 265.018L130.818 261.359C131.984 263.427 133.045 265.177 135.59 265.177C138.029 265.177 139.567 264.223 139.567 260.511V235.269H146.991V260.616C146.991 268.305 142.484 271.805 135.908 271.805C129.969 271.805 126.522 268.729 124.772 265.018" fill="url(#paint1_linear_74_432)"/>
<path d="M151.024 264.223L157.069 260.723C158.66 263.321 160.728 265.23 164.387 265.23C167.463 265.23 169.425 263.692 169.425 261.571C169.425 259.026 167.41 258.124 164.016 256.64L162.16 255.844C156.804 253.564 153.251 250.7 153.251 244.655C153.251 239.087 157.493 234.844 164.122 234.844C168.842 234.844 172.236 236.488 174.675 240.784L168.894 244.496C167.622 242.216 166.243 241.314 164.122 241.314C161.948 241.314 160.569 242.693 160.569 244.496C160.569 246.723 161.948 247.625 165.129 249.004L166.985 249.799C173.296 252.504 176.849 255.261 176.849 261.465C176.849 268.147 171.599 271.806 164.546 271.806C157.652 271.806 153.198 268.518 151.024 264.223Z" fill="url(#paint2_linear_74_432)"/>
<path d="M210.6 396V376.16H215.12L215.56 378.84C216.2 377.88 217.04 377.12 218.08 376.56C219.147 375.973 220.373 375.68 221.76 375.68C224.827 375.68 227 376.867 228.28 379.24C229 378.147 229.96 377.28 231.16 376.64C232.387 376 233.72 375.68 235.16 375.68C237.747 375.68 239.733 376.453 241.12 378C242.507 379.547 243.2 381.813 243.2 384.8V396H238.08V385.28C238.08 383.573 237.747 382.267 237.08 381.36C236.44 380.453 235.44 380 234.08 380C232.693 380 231.573 380.507 230.72 381.52C229.893 382.533 229.48 383.947 229.48 385.76V396H224.36V385.28C224.36 383.573 224.027 382.267 223.36 381.36C222.693 380.453 221.667 380 220.28 380C218.92 380 217.813 380.507 216.96 381.52C216.133 382.533 215.72 383.947 215.72 385.76V396H210.6ZM253.701 396.48C251.994 396.48 250.594 396.213 249.501 395.68C248.408 395.12 247.594 394.387 247.061 393.48C246.528 392.573 246.261 391.573 246.261 390.48C246.261 388.64 246.981 387.147 248.421 386C249.861 384.853 252.021 384.28 254.901 384.28H259.941V383.8C259.941 382.44 259.554 381.44 258.781 380.8C258.008 380.16 257.048 379.84 255.901 379.84C254.861 379.84 253.954 380.093 253.181 380.6C252.408 381.08 251.928 381.8 251.741 382.76H246.741C246.874 381.32 247.354 380.067 248.181 379C249.034 377.933 250.128 377.12 251.461 376.56C252.794 375.973 254.288 375.68 255.941 375.68C258.768 375.68 260.994 376.387 262.621 377.8C264.248 379.213 265.061 381.213 265.061 383.8V396H260.701L260.221 392.8C259.634 393.867 258.808 394.747 257.741 395.44C256.701 396.133 255.354 396.48 253.701 396.48ZM254.861 392.48C256.328 392.48 257.461 392 258.261 391.04C259.088 390.08 259.608 388.893 259.821 387.48H255.461C254.101 387.48 253.128 387.733 252.541 388.24C251.954 388.72 251.661 389.32 251.661 390.04C251.661 390.813 251.954 391.413 252.541 391.84C253.128 392.267 253.901 392.48 254.861 392.48ZM271.507 373.08C270.574 373.08 269.8 372.8 269.187 372.24C268.6 371.68 268.307 370.973 268.307 370.12C268.307 369.267 268.6 368.573 269.187 368.04C269.8 367.48 270.574 367.2 271.507 367.2C272.44 367.2 273.2 367.48 273.787 368.04C274.4 368.573 274.707 369.267 274.707 370.12C274.707 370.973 274.4 371.68 273.787 372.24C273.2 372.8 272.44 373.08 271.507 373.08ZM268.947 396V376.16H274.067V396H268.947ZM278.211 396V376.16H282.731L283.131 379.52C283.744 378.347 284.624 377.413 285.771 376.72C286.944 376.027 288.318 375.68 289.891 375.68C292.344 375.68 294.251 376.453 295.611 378C296.971 379.547 297.651 381.813 297.651 384.8V396H292.531V385.28C292.531 383.573 292.184 382.267 291.491 381.36C290.798 380.453 289.718 380 288.251 380C286.811 380 285.624 380.507 284.691 381.52C283.784 382.533 283.331 383.947 283.331 385.76V396H278.211ZM303.547 396.28C302.614 396.28 301.84 395.987 301.227 395.4C300.64 394.813 300.347 394.107 300.347 393.28C300.347 392.427 300.64 391.707 301.227 391.12C301.84 390.533 302.614 390.24 303.547 390.24C304.48 390.24 305.24 390.533 305.827 391.12C306.44 391.707 306.747 392.427 306.747 393.28C306.747 394.107 306.44 394.813 305.827 395.4C305.24 395.987 304.48 396.28 303.547 396.28ZM312.596 373.08C311.663 373.08 310.89 372.8 310.276 372.24C309.69 371.68 309.396 370.973 309.396 370.12C309.396 369.267 309.69 368.573 310.276 368.04C310.89 367.48 311.663 367.2 312.596 367.2C313.53 367.2 314.29 367.48 314.876 368.04C315.49 368.573 315.796 369.267 315.796 370.12C315.796 370.973 315.49 371.68 314.876 372.24C314.29 372.8 313.53 373.08 312.596 373.08ZM305.996 404.8V400.44H307.556C308.436 400.44 309.063 400.267 309.436 399.92C309.81 399.573 309.996 398.987 309.996 398.16V376.16H315.116V398.16C315.116 400.56 314.503 402.267 313.276 403.28C312.076 404.293 310.436 404.8 308.356 404.8H305.996ZM326.099 396.48C324.393 396.48 322.993 396.213 321.899 395.68C320.806 395.12 319.993 394.387 319.459 393.48C318.926 392.573 318.659 391.573 318.659 390.48C318.659 388.64 319.379 387.147 320.819 386C322.259 384.853 324.419 384.28 327.299 384.28H332.339V383.8C332.339 382.44 331.953 381.44 331.179 380.8C330.406 380.16 329.446 379.84 328.299 379.84C327.259 379.84 326.353 380.093 325.579 380.6C324.806 381.08 324.326 381.8 324.139 382.76H319.139C319.273 381.32 319.753 380.067 320.579 379C321.433 377.933 322.526 377.12 323.859 376.56C325.193 375.973 326.686 375.68 328.339 375.68C331.166 375.68 333.393 376.387 335.019 377.8C336.646 379.213 337.459 381.213 337.459 383.8V396H333.099L332.619 392.8C332.033 393.867 331.206 394.747 330.139 395.44C329.099 396.133 327.753 396.48 326.099 396.48ZM327.259 392.48C328.726 392.48 329.859 392 330.659 391.04C331.486 390.08 332.006 388.893 332.219 387.48H327.859C326.499 387.48 325.526 387.733 324.939 388.24C324.353 388.72 324.059 389.32 324.059 390.04C324.059 390.813 324.353 391.413 324.939 391.84C325.526 392.267 326.299 392.48 327.259 392.48ZM345.919 396L338.639 376.16H343.999L349.039 391.16L354.079 376.16H359.439L352.119 396H345.919ZM367.098 396.48C365.391 396.48 363.991 396.213 362.898 395.68C361.804 395.12 360.991 394.387 360.458 393.48C359.924 392.573 359.658 391.573 359.658 390.48C359.658 388.64 360.378 387.147 361.818 386C363.258 384.853 365.418 384.28 368.298 384.28H373.338V383.8C373.338 382.44 372.951 381.44 372.178 380.8C371.404 380.16 370.444 379.84 369.298 379.84C368.258 379.84 367.351 380.093 366.578 380.6C365.804 381.08 365.324 381.8 365.138 382.76H360.138C360.271 381.32 360.751 380.067 361.578 379C362.431 377.933 363.524 377.12 364.858 376.56C366.191 375.973 367.684 375.68 369.338 375.68C372.164 375.68 374.391 376.387 376.018 377.8C377.644 379.213 378.458 381.213 378.458 383.8V396H374.098L373.618 392.8C373.031 393.867 372.204 394.747 371.138 395.44C370.098 396.133 368.751 396.48 367.098 396.48ZM368.258 392.48C369.724 392.48 370.858 392 371.658 391.04C372.484 390.08 373.004 388.893 373.218 387.48H368.858C367.498 387.48 366.524 387.733 365.938 388.24C365.351 388.72 365.058 389.32 365.058 390.04C365.058 390.813 365.351 391.413 365.938 391.84C366.524 392.267 367.298 392.48 368.258 392.48Z" fill="#EDF1E4"/>
<path d="M133.765 403.095C133.765 403.095 130.746 404.851 135.913 405.445C142.173 406.159 145.373 406.056 152.271 404.751C152.271 404.751 154.085 405.888 156.618 406.873C141.153 413.501 121.618 406.489 133.765 403.095Z" fill="#D7CEA5"/>
<path d="M131.875 394.446C131.875 394.446 128.489 396.952 133.66 397.487C140.347 398.177 145.628 398.233 154.767 396.474C154.767 396.474 156.031 397.755 158.018 398.456C139.32 403.924 118.493 398.887 131.875 394.446Z" fill="#D7CEA5"/>
<path d="M147.806 379.774C151.617 384.161 146.805 388.109 146.805 388.109C146.805 388.109 156.481 383.114 152.037 376.859C147.887 371.026 144.704 368.128 161.934 358.135C161.934 358.135 134.889 364.89 147.806 379.774Z" fill="#D7CEA5"/>
<path d="M168.26 409.493C168.26 409.493 170.494 411.333 165.8 412.757C156.873 415.462 128.646 416.278 120.804 412.865C117.986 411.639 123.272 409.937 124.934 409.58C126.669 409.204 127.66 409.274 127.66 409.274C124.525 407.066 107.398 413.61 118.96 415.484C150.491 420.598 176.439 413.182 168.26 409.493Z" fill="#D7CEA5"/>
<path d="M135.216 385.484C135.216 385.484 120.858 388.894 130.132 390.133C134.047 390.657 141.853 390.538 149.124 389.929C155.066 389.428 161.032 388.362 161.032 388.362C161.032 388.362 158.937 389.26 157.421 390.295C142.841 394.129 114.674 392.345 122.783 388.423C129.641 385.108 135.216 385.484 135.216 385.484Z" fill="#D7CEA5"/>
<path d="M160.973 399.881C175.795 392.179 168.942 384.778 164.159 385.775C162.986 386.019 162.463 386.23 162.463 386.23C162.463 386.23 162.899 385.549 163.73 385.254C173.193 381.927 180.47 395.066 160.675 400.269C160.675 400.269 160.905 400.065 160.973 399.881Z" fill="#D7CEA5"/>
<path d="M152.037 342C152.037 342 160.245 350.211 144.252 362.838C131.426 372.966 141.327 378.742 144.246 385.34C136.76 378.585 131.266 372.639 134.952 367.105C140.362 358.982 155.349 355.043 152.037 342Z" fill="#D7CEA5"/>
<path d="M136.673 420.752C150.9 421.662 172.747 420.246 173.264 413.515C173.264 413.515 172.27 416.067 161.506 418.093C149.363 420.378 134.387 420.112 125.504 418.647C125.504 418.647 127.322 420.152 136.673 420.752Z" fill="#D7CEA5"/>
<line y1="166" x2="485" y2="166" stroke="url(#paint3_linear_74_432)" stroke-width="2"/>
<line y1="309" x2="485" y2="309" stroke="url(#paint4_linear_74_432)" stroke-width="2"/>
</g>
<defs>
<linearGradient id="paint0_linear_74_432" x1="242.5" y1="-157.5" x2="242.5" y2="396.5" gradientUnits="userSpaceOnUse">
<stop stop-color="#D9D9D9"/>
<stop offset="0.983139" stop-color="#D9D9D9" stop-opacity="0"/>
</linearGradient>
<linearGradient id="paint1_linear_74_432" x1="135.882" y1="235.269" x2="135.882" y2="271.805" gradientUnits="userSpaceOnUse">
<stop stop-color="#003229"/>
<stop offset="1" stop-color="#00201A"/>
</linearGradient>
<linearGradient id="paint2_linear_74_432" x1="163.936" y1="234.844" x2="163.936" y2="271.806" gradientUnits="userSpaceOnUse">
<stop stop-color="#003229"/>
<stop offset="1" stop-color="#00201A"/>
</linearGradient>
<linearGradient id="paint3_linear_74_432" x1="485" y1="167" x2="0" y2="167" gradientUnits="userSpaceOnUse">
<stop stop-color="#B3BD95" stop-opacity="0"/>
<stop offset="0.493593" stop-color="#B3BD95"/>
<stop offset="1" stop-color="#B3BD95" stop-opacity="0"/>
</linearGradient>
<linearGradient id="paint4_linear_74_432" x1="485" y1="310" x2="0" y2="310" gradientUnits="userSpaceOnUse">
<stop stop-color="#B3BD95" stop-opacity="0"/>
<stop offset="0.493593" stop-color="#B3BD95"/>
<stop offset="1" stop-color="#B3BD95" stop-opacity="0"/>
</linearGradient>
</defs>
</svg>
