<svg width="485" height="450" viewBox="0 0 485 450" fill="none" xmlns="http://www.w3.org/2000/svg">
<mask id="mask0_74_437" style="mask-type:alpha" maskUnits="userSpaceOnUse" x="0" y="0" width="485" height="450">
<rect width="485" height="450" fill="url(#paint0_linear_74_437)"/>
</mask>
<g mask="url(#mask0_74_437)">
<circle cx="242.5" cy="619.5" r="516.5" stroke="#D7CEA5" stroke-width="2"/>
<g filter="url(#filter0_b_74_437)">
<ellipse cx="75.5" cy="129.5" rx="54.5" ry="53.5" fill="url(#paint1_linear_74_437)"/>
<path d="M129 129.5C129 158.478 105.065 182 75.5 182C45.9352 182 22 158.478 22 129.5C22 100.522 45.9352 77 75.5 77C105.065 77 129 100.522 129 129.5Z" stroke="#D7CEA5" stroke-width="2"/>
</g>
<path d="M57 109H75.5326V116.38H65.0958L65.7786 123.94H75.5326V131.304H59.0158L57 109ZM59.3409 135.01H66.754L67.2742 140.912L75.5326 143.123V150.828L60.3814 146.601" fill="#D7CEA5"/>
<path d="M94.0002 109H75.5004V116.38H93.3174L94.0002 109ZM92.651 123.94H75.5004V131.32H84.604L83.7423 140.912L75.5004 143.123V150.796L90.6189 146.601" fill="#D7CEA5"/>
<g filter="url(#filter1_b_74_437)">
<ellipse cx="408.5" cy="130" rx="54.5" ry="53" fill="url(#paint2_linear_74_437)"/>
<path d="M462 130C462 158.693 438.074 182 408.5 182C378.926 182 355 158.693 355 130C355 101.307 378.926 78 408.5 78C438.074 78 462 101.307 462 130Z" stroke="#D7CEA5" stroke-width="2"/>
</g>
<path d="M391.33 123.951L391.992 131.337H408.522V123.951H391.33Z" fill="#D7CEA5"/>
<path d="M390 109L390.671 116.387H408.522V109H390Z" fill="#D7CEA5"/>
<path d="M408.522 143.135L408.49 143.143L400.263 140.922L399.737 135.031H392.322L393.357 146.629L408.488 150.829L408.522 150.82V143.135Z" fill="#D7CEA5"/>
<path d="M425.667 123.951L427 109H408.497V116.387H418.905L418.233 123.951H408.497V131.337H417.593L416.735 140.917L408.497 143.141V150.826L423.64 146.629L423.751 145.381L425.487 125.934L425.667 123.951Z" fill="#D7CEA5"/>
<g filter="url(#filter2_b_74_437)">
<ellipse cx="244" cy="101" rx="54" ry="53" fill="url(#paint3_linear_74_437)"/>
<path d="M297 101C297 129.701 273.289 153 244 153C214.711 153 191 129.701 191 101C191 72.2987 214.711 49 244 49C273.289 49 297 72.2987 297 101Z" stroke="#D7CEA5" stroke-width="2"/>
</g>
<path d="M217 112.941L223.258 109.136C224.465 111.287 225.564 113.106 228.198 113.106C230.723 113.106 232.315 112.114 232.315 108.253V82H240V108.363C240 116.36 235.334 120 228.527 120C222.38 120 218.811 116.801 217 112.94" fill="#D7CEA5"/>
<path d="M244 111.999L250.32 108.306C251.984 111.048 254.146 113.062 257.971 113.062C261.187 113.062 263.238 111.439 263.238 109.201C263.238 106.515 261.131 105.564 257.583 103.998L255.643 103.158C250.043 100.752 246.328 97.7306 246.328 91.3517C246.328 85.4765 250.764 81 257.694 81C262.628 81 266.177 82.7347 268.727 87.2671L262.684 91.1837C261.353 88.7778 259.912 87.8268 257.694 87.8268C255.421 87.8268 253.979 89.2815 253.979 91.1837C253.979 93.5338 255.421 94.4852 258.747 95.9401L260.688 96.7794C267.285 99.6332 271 102.542 271 109.089C271 116.14 265.511 120 258.138 120C250.93 120 246.273 116.531 244 111.999Z" fill="#D7CEA5"/>
<circle cx="242.5" cy="766.5" r="516.5" stroke="#D7CEA5" stroke-width="2"/>
<g filter="url(#filter3_b_74_437)">
<ellipse cx="243.5" cy="248.5" rx="54.5" ry="53.5" fill="url(#paint4_linear_74_437)"/>
<path d="M297 248.5C297 277.478 273.065 301 243.5 301C213.935 301 190 277.478 190 248.5C190 219.522 213.935 196 243.5 196C273.065 196 297 219.522 297 248.5Z" stroke="#D7CEA5" stroke-width="2"/>
</g>
<path d="M243.5 229C234.567 229 228.983 233.444 226.75 242.333C230.1 237.889 234.008 236.222 238.475 237.333C241.023 237.967 242.845 239.807 244.861 241.843C248.146 245.161 251.947 249 260.25 249C269.183 249 274.767 244.556 277 235.667C273.65 240.111 269.742 241.778 265.275 240.667C262.727 240.033 260.905 238.193 258.889 236.157C255.604 232.839 251.803 229 243.5 229ZM226.75 249C217.817 249 212.233 253.444 210 262.333C213.35 257.889 217.258 256.222 221.725 257.333C224.273 257.967 226.095 259.807 228.111 261.843C231.396 265.161 235.197 269 243.5 269C252.433 269 258.017 264.556 260.25 255.667C256.9 260.111 252.992 261.778 248.525 260.667C245.977 260.033 244.155 258.193 242.139 256.157C238.854 252.839 235.053 249 226.75 249Z" fill="#D7CEA5"/>
<g filter="url(#filter4_b_74_437)">
<ellipse cx="408.5" cy="277" rx="54.5" ry="53" fill="url(#paint5_linear_74_437)"/>
<path d="M462 277C462 305.693 438.074 329 408.5 329C378.926 329 355 305.693 355 277C355 248.307 378.926 225 408.5 225C438.074 225 462 248.307 462 277Z" stroke="#D7CEA5" stroke-width="2"/>
</g>
<g clip-path="url(#clip0_74_437)">
<path d="M408 311C426.778 311 442 295.778 442 277C442 258.222 426.778 243 408 243C389.222 243 374 258.222 374 277C374 295.778 389.222 311 408 311Z" fill="#D7CEA5"/>
<path d="M408 311C426.778 311 442 295.778 442 277C442 258.222 426.778 243 408 243C389.222 243 374 258.222 374 277C374 295.778 389.222 311 408 311Z" fill="#D7CEA5"/>
<path d="M421.978 263.4H417.444V290.6H421.978V263.4Z" fill="url(#paint6_linear_74_437)"/>
<g filter="url(#filter5_b_74_437)">
<path d="M430.481 302.507L400.12 263.4H394.4V290.589H398.976V269.211L426.889 305.275C428.148 304.432 429.348 303.507 430.481 302.507Z" fill="url(#paint7_linear_74_437)"/>
</g>
</g>
<g filter="url(#filter6_b_74_437)">
<ellipse cx="75" cy="275" rx="54" ry="53" fill="url(#paint8_linear_74_437)"/>
<path d="M128 275C128 303.701 104.289 327 75 327C45.7112 327 22 303.701 22 275C22 246.299 45.7112 223 75 223C104.289 223 128 246.299 128 275Z" stroke="#D7CEA5" stroke-width="2"/>
</g>
<path d="M97.0057 263.994C96.2865 263.746 95.5412 263.512 94.7738 263.291C94.8999 262.776 95.0157 262.268 95.1186 261.768C96.8081 253.567 95.7035 246.96 91.9314 244.785C88.3144 242.699 82.3992 244.874 76.425 250.073C75.8505 250.573 75.2745 251.102 74.6986 251.657C74.3149 251.29 73.9319 250.935 73.5498 250.596C67.2887 245.037 61.013 242.694 57.2446 244.876C53.6311 246.968 52.561 253.179 54.0818 260.951C54.2287 261.702 54.4003 262.468 54.5944 263.248C53.7063 263.5 52.8488 263.769 52.0283 264.055C44.6879 266.614 40 270.625 40 274.785C40 279.082 45.0325 283.392 52.6781 286.005C53.2815 286.211 53.9075 286.406 54.5527 286.591C54.3433 287.434 54.1611 288.26 54.0082 289.066C52.5582 296.703 53.6906 302.768 57.2945 304.846C61.0169 306.993 67.2643 304.787 73.3476 299.469C73.8284 299.049 74.311 298.603 74.7944 298.136C75.421 298.739 76.0465 299.31 76.6688 299.846C82.5612 304.916 88.3809 306.964 91.9815 304.879C95.7002 302.727 96.9088 296.212 95.3398 288.286C95.2199 287.681 95.0805 287.062 94.9239 286.433C95.3626 286.303 95.7933 286.169 96.2133 286.03C104.162 283.397 109.333 279.139 109.333 274.785C109.333 270.61 104.494 266.572 97.0057 263.994ZM95.2818 283.219C94.9026 283.344 94.5136 283.465 94.1172 283.583C93.2398 280.805 92.0555 277.851 90.6063 274.799C91.9893 271.82 93.1277 268.904 93.9806 266.144C94.6899 266.35 95.3783 266.566 96.0416 266.794C102.458 269.003 106.371 272.269 106.371 274.785C106.371 277.465 102.145 280.945 95.2818 283.219ZM92.4342 288.861C93.128 292.366 93.2271 295.535 92.7675 298.012C92.3545 300.238 91.5241 301.722 90.4973 302.316C88.3123 303.581 83.6397 301.937 78.6004 297.6C78.0227 297.103 77.4408 296.572 76.8571 296.011C78.8107 293.874 80.7632 291.39 82.6688 288.632C86.0206 288.334 89.1872 287.848 92.0589 287.184C92.2003 287.755 92.3259 288.314 92.4342 288.861ZM63.6372 302.098C61.5024 302.851 59.8022 302.873 58.7744 302.28C56.5874 301.019 55.6783 296.15 56.9184 289.618C57.0605 288.87 57.2295 288.102 57.4244 287.317C60.2646 287.945 63.408 288.397 66.7678 288.669C68.6862 291.368 70.6951 293.85 72.7196 296.022C72.2773 296.449 71.8367 296.856 71.3986 297.239C68.7086 299.59 66.0129 301.258 63.6372 302.098ZM53.636 283.202C50.2553 282.047 47.4633 280.545 45.5496 278.906C43.83 277.433 42.9618 275.971 42.9618 274.785C42.9618 272.26 46.7257 269.04 53.0033 266.851C53.765 266.586 54.5624 266.336 55.3898 266.1C56.2574 268.923 57.3955 271.873 58.769 274.857C57.3778 277.885 56.2235 280.883 55.3474 283.738C54.7575 283.568 54.186 283.39 53.636 283.202ZM56.9885 260.382C55.6855 253.723 56.5509 248.7 58.7285 247.439C61.048 246.096 66.1772 248.011 71.5831 252.811C71.9286 253.118 72.2756 253.439 72.6235 253.771C70.609 255.934 68.6185 258.397 66.7171 261.08C63.4563 261.382 60.335 261.868 57.4651 262.518C57.2847 261.792 57.1249 261.079 56.9885 260.382ZM86.8957 267.767C86.2096 266.582 85.5053 265.425 84.7873 264.3C86.9995 264.579 89.1189 264.95 91.1093 265.405C90.5118 267.32 89.767 269.322 88.8903 271.375C88.2613 270.181 87.5962 268.977 86.8957 267.767ZM74.6996 255.888C76.0658 257.368 77.4339 259.02 78.7796 260.813C77.4236 260.749 76.0507 260.716 74.6665 260.716C73.2954 260.716 71.9327 260.749 70.5851 260.812C71.9321 259.035 73.3121 257.385 74.6996 255.888ZM62.4254 267.787C61.7401 268.976 61.0873 270.173 60.4682 271.373C59.6057 269.327 58.8678 267.316 58.2651 265.373C60.2433 264.931 62.3527 264.569 64.5508 264.294C63.8227 265.43 63.1126 266.596 62.4254 267.787ZM64.6141 285.487C62.3431 285.234 60.2019 284.89 58.2242 284.46C58.8366 282.483 59.5908 280.428 60.4716 278.339C61.0922 279.537 61.7477 280.735 62.4372 281.926C63.1395 283.139 63.8673 284.328 64.6141 285.487ZM74.7816 293.891C73.3777 292.376 71.9775 290.701 70.61 288.899C71.9375 288.951 73.291 288.977 74.6665 288.977C76.0797 288.977 77.4767 288.945 78.8518 288.884C77.5017 290.719 76.1385 292.397 74.7816 293.891ZM88.9185 278.232C89.8452 280.344 90.6264 282.388 91.2467 284.331C89.2364 284.79 87.066 285.159 84.7792 285.434C85.4989 284.293 86.2094 283.116 86.9075 281.906C87.6138 280.681 88.2844 279.455 88.9185 278.232ZM84.3419 280.426C83.2581 282.305 82.1454 284.099 81.0158 285.793C78.9584 285.94 76.8329 286.015 74.6665 286.015C72.5089 286.015 70.4102 285.948 68.3892 285.817C67.2141 284.102 66.0772 282.302 65.0003 280.442C63.9262 278.587 62.938 276.716 62.0422 274.856C62.9377 272.991 63.9236 271.119 64.9915 269.267L64.9913 269.267C66.062 267.41 67.1889 265.62 68.3532 263.915C70.4151 263.759 72.5295 263.678 74.6664 263.678C76.8129 263.678 78.9302 263.76 80.9915 263.917C82.138 265.609 83.2572 267.394 84.3322 269.251C85.4193 271.129 86.4179 272.989 87.3211 274.814C86.4207 276.67 85.4242 278.549 84.3419 280.426ZM90.4519 247.351C92.7737 248.69 93.6765 254.09 92.2178 261.17C92.1248 261.622 92.02 262.082 91.9062 262.549C89.0297 261.885 85.9062 261.391 82.6359 261.084C80.7307 258.371 78.7565 255.905 76.7749 253.77C77.3077 253.257 77.8397 252.769 78.3695 252.307C83.4881 247.853 88.2722 246.094 90.4519 247.351ZM74.6665 268.594C78.0858 268.594 80.8577 271.366 80.8577 274.785C80.8577 278.204 78.0858 280.976 74.6665 280.976C71.2473 280.976 68.4753 278.204 68.4753 274.785C68.4753 271.366 71.2473 268.594 74.6665 268.594Z" fill="#D7CEA5"/>
</g>
<defs>
<filter id="filter0_b_74_437" x="-4" y="51" width="159" height="157" filterUnits="userSpaceOnUse" color-interpolation-filters="sRGB">
<feFlood flood-opacity="0" result="BackgroundImageFix"/>
<feGaussianBlur in="BackgroundImageFix" stdDeviation="12.5"/>
<feComposite in2="SourceAlpha" operator="in" result="effect1_backgroundBlur_74_437"/>
<feBlend mode="normal" in="SourceGraphic" in2="effect1_backgroundBlur_74_437" result="shape"/>
</filter>
<filter id="filter1_b_74_437" x="329" y="52" width="159" height="156" filterUnits="userSpaceOnUse" color-interpolation-filters="sRGB">
<feFlood flood-opacity="0" result="BackgroundImageFix"/>
<feGaussianBlur in="BackgroundImageFix" stdDeviation="12.5"/>
<feComposite in2="SourceAlpha" operator="in" result="effect1_backgroundBlur_74_437"/>
<feBlend mode="normal" in="SourceGraphic" in2="effect1_backgroundBlur_74_437" result="shape"/>
</filter>
<filter id="filter2_b_74_437" x="165" y="23" width="158" height="156" filterUnits="userSpaceOnUse" color-interpolation-filters="sRGB">
<feFlood flood-opacity="0" result="BackgroundImageFix"/>
<feGaussianBlur in="BackgroundImageFix" stdDeviation="12.5"/>
<feComposite in2="SourceAlpha" operator="in" result="effect1_backgroundBlur_74_437"/>
<feBlend mode="normal" in="SourceGraphic" in2="effect1_backgroundBlur_74_437" result="shape"/>
</filter>
<filter id="filter3_b_74_437" x="164" y="170" width="159" height="157" filterUnits="userSpaceOnUse" color-interpolation-filters="sRGB">
<feFlood flood-opacity="0" result="BackgroundImageFix"/>
<feGaussianBlur in="BackgroundImageFix" stdDeviation="12.5"/>
<feComposite in2="SourceAlpha" operator="in" result="effect1_backgroundBlur_74_437"/>
<feBlend mode="normal" in="SourceGraphic" in2="effect1_backgroundBlur_74_437" result="shape"/>
</filter>
<filter id="filter4_b_74_437" x="329" y="199" width="159" height="156" filterUnits="userSpaceOnUse" color-interpolation-filters="sRGB">
<feFlood flood-opacity="0" result="BackgroundImageFix"/>
<feGaussianBlur in="BackgroundImageFix" stdDeviation="12.5"/>
<feComposite in2="SourceAlpha" operator="in" result="effect1_backgroundBlur_74_437"/>
<feBlend mode="normal" in="SourceGraphic" in2="effect1_backgroundBlur_74_437" result="shape"/>
</filter>
<filter id="filter5_b_74_437" x="369.4" y="238.4" width="86.0808" height="91.8748" filterUnits="userSpaceOnUse" color-interpolation-filters="sRGB">
<feFlood flood-opacity="0" result="BackgroundImageFix"/>
<feGaussianBlur in="BackgroundImageFix" stdDeviation="12.5"/>
<feComposite in2="SourceAlpha" operator="in" result="effect1_backgroundBlur_74_437"/>
<feBlend mode="normal" in="SourceGraphic" in2="effect1_backgroundBlur_74_437" result="shape"/>
</filter>
<filter id="filter6_b_74_437" x="-4" y="197" width="158" height="156" filterUnits="userSpaceOnUse" color-interpolation-filters="sRGB">
<feFlood flood-opacity="0" result="BackgroundImageFix"/>
<feGaussianBlur in="BackgroundImageFix" stdDeviation="12.5"/>
<feComposite in2="SourceAlpha" operator="in" result="effect1_backgroundBlur_74_437"/>
<feBlend mode="normal" in="SourceGraphic" in2="effect1_backgroundBlur_74_437" result="shape"/>
</filter>
<linearGradient id="paint0_linear_74_437" x1="242.5" y1="0" x2="242.5" y2="450" gradientUnits="userSpaceOnUse">
<stop stop-color="#D9D9D9"/>
<stop offset="0.823069" stop-color="#D9D9D9" stop-opacity="0"/>
</linearGradient>
<linearGradient id="paint1_linear_74_437" x1="75.5" y1="76" x2="87" y2="183" gradientUnits="userSpaceOnUse">
<stop stop-color="#004B3F"/>
<stop offset="0.691833" stop-color="#002C23"/>
</linearGradient>
<linearGradient id="paint2_linear_74_437" x1="429" y1="77" x2="353.815" y2="169.85" gradientUnits="userSpaceOnUse">
<stop stop-color="#004B3F"/>
<stop offset="0.691833" stop-color="#002C23"/>
</linearGradient>
<linearGradient id="paint3_linear_74_437" x1="203.5" y1="58.5" x2="255.391" y2="154.002" gradientUnits="userSpaceOnUse">
<stop stop-color="#004B3F"/>
<stop offset="0.691833" stop-color="#002C23"/>
</linearGradient>
<linearGradient id="paint4_linear_74_437" x1="243.5" y1="195" x2="255" y2="302" gradientUnits="userSpaceOnUse">
<stop stop-color="#004B3F"/>
<stop offset="0.691833" stop-color="#002C23"/>
</linearGradient>
<linearGradient id="paint5_linear_74_437" x1="429" y1="224" x2="353.815" y2="316.85" gradientUnits="userSpaceOnUse">
<stop stop-color="#004B3F"/>
<stop offset="0.691833" stop-color="#002C23"/>
</linearGradient>
<linearGradient id="paint6_linear_74_437" x1="417" y1="265" x2="417" y2="289" gradientUnits="userSpaceOnUse">
<stop stop-color="#004B3F"/>
<stop offset="0.963542" stop-color="#D7CEA5"/>
</linearGradient>
<linearGradient id="paint7_linear_74_437" x1="406.5" y1="286" x2="421.312" y2="305.908" gradientUnits="userSpaceOnUse">
<stop stop-color="#004B3F"/>
<stop offset="1" stop-color="#D7CEA5"/>
</linearGradient>
<linearGradient id="paint8_linear_74_437" x1="34.5" y1="232.5" x2="86.391" y2="328.002" gradientUnits="userSpaceOnUse">
<stop stop-color="#004B3F"/>
<stop offset="0.691833" stop-color="#002C23"/>
</linearGradient>
<clipPath id="clip0_74_437">
<rect width="68" height="68" fill="white" transform="translate(374 243)"/>
</clipPath>
</defs>
</svg>
