<svg width="200" height="60" viewBox="0 0 200 60" fill="none" xmlns="http://www.w3.org/2000/svg">
<rect width="200" height="60" rx="10" fill="#3D8361" fill-opacity="0.4"/>
<path d="M57.3374 38.264C56.208 38.264 55.2107 38.0733 54.3454 37.692C53.48 37.296 52.798 36.7387 52.2994 36.02C51.8007 35.2867 51.544 34.3993 51.5294 33.358H54.4994C54.5287 34.0767 54.7854 34.6853 55.2694 35.184C55.768 35.668 56.45 35.91 57.3154 35.91C58.0634 35.91 58.6574 35.734 59.0974 35.382C59.5374 35.0153 59.7574 34.5313 59.7574 33.93C59.7574 33.2993 59.5594 32.808 59.1634 32.456C58.782 32.104 58.2687 31.818 57.6234 31.598C56.978 31.378 56.2887 31.1433 55.5554 30.894C54.3674 30.4833 53.458 29.9553 52.8274 29.31C52.2114 28.6647 51.9034 27.8067 51.9034 26.736C51.8887 25.8267 52.1014 25.0493 52.5414 24.404C52.996 23.744 53.612 23.238 54.3894 22.886C55.1667 22.5193 56.0614 22.336 57.0734 22.336C58.1 22.336 59.002 22.5193 59.7794 22.886C60.5714 23.2527 61.1874 23.766 61.6274 24.426C62.082 25.086 62.324 25.8707 62.3534 26.78H59.3394C59.3247 26.2373 59.112 25.7607 58.7014 25.35C58.3054 24.9247 57.748 24.712 57.0294 24.712C56.4134 24.6973 55.8927 24.8513 55.4674 25.174C55.0567 25.482 54.8514 25.9367 54.8514 26.538C54.8514 27.0513 55.0127 27.462 55.3354 27.77C55.658 28.0633 56.098 28.3127 56.6554 28.518C57.2127 28.7233 57.8507 28.9433 58.5694 29.178C59.332 29.442 60.0287 29.75 60.6594 30.102C61.29 30.454 61.796 30.9233 62.1774 31.51C62.5587 32.082 62.7494 32.8227 62.7494 33.732C62.7494 34.5387 62.544 35.2867 62.1334 35.976C61.7227 36.6653 61.114 37.2227 60.3074 37.648C59.5007 38.0587 58.5107 38.264 57.3374 38.264ZM65.9983 25.394C65.485 25.394 65.0596 25.24 64.7223 24.932C64.3996 24.624 64.2383 24.2353 64.2383 23.766C64.2383 23.2967 64.3996 22.9153 64.7223 22.622C65.0596 22.314 65.485 22.16 65.9983 22.16C66.5116 22.16 66.9296 22.314 67.2523 22.622C67.5896 22.9153 67.7583 23.2967 67.7583 23.766C67.7583 24.2353 67.5896 24.624 67.2523 24.932C66.9296 25.24 66.5116 25.394 65.9983 25.394ZM64.5903 38V27.088H67.4063V38H64.5903ZM74.3055 34.744C73.7775 34.744 73.2862 34.6853 72.8315 34.568L72.0175 35.382C72.2669 35.514 72.6042 35.624 73.0295 35.712C73.4549 35.8 74.1442 35.888 75.0975 35.976C76.5495 36.108 77.6055 36.4527 78.2655 37.01C78.9255 37.5673 79.2555 38.3373 79.2555 39.32C79.2555 39.9653 79.0795 40.574 78.7275 41.146C78.3755 41.7327 77.8329 42.202 77.0995 42.554C76.3662 42.9207 75.4275 43.104 74.2835 43.104C72.7289 43.104 71.4749 42.8107 70.5215 42.224C69.5682 41.652 69.0915 40.7867 69.0915 39.628C69.0915 38.6453 69.5682 37.7947 70.5215 37.076C70.2282 36.944 69.9715 36.8047 69.7515 36.658C69.5462 36.5113 69.3629 36.3573 69.2015 36.196V35.69L71.1155 33.666C70.2649 32.918 69.8395 31.9573 69.8395 30.784C69.8395 30.0507 70.0155 29.3833 70.3675 28.782C70.7342 28.1807 71.2475 27.704 71.9075 27.352C72.5675 27 73.3669 26.824 74.3055 26.824C74.9215 26.824 75.4935 26.912 76.0215 27.088H80.1575V28.804L78.2875 28.936C78.5809 29.4933 78.7275 30.1093 78.7275 30.784C78.7275 31.5173 78.5515 32.1847 78.1995 32.786C77.8475 33.3873 77.3342 33.864 76.6595 34.216C75.9995 34.568 75.2149 34.744 74.3055 34.744ZM74.3055 32.588C74.8775 32.588 75.3469 32.434 75.7135 32.126C76.0949 31.818 76.2855 31.378 76.2855 30.806C76.2855 30.234 76.0949 29.794 75.7135 29.486C75.3469 29.178 74.8775 29.024 74.3055 29.024C73.7042 29.024 73.2202 29.178 72.8535 29.486C72.4869 29.794 72.3035 30.234 72.3035 30.806C72.3035 31.378 72.4869 31.818 72.8535 32.126C73.2202 32.434 73.7042 32.588 74.3055 32.588ZM71.6655 39.342C71.6655 39.8847 71.9149 40.288 72.4135 40.552C72.9269 40.8307 73.5502 40.97 74.2835 40.97C74.9875 40.97 75.5595 40.8233 75.9995 40.53C76.4395 40.2513 76.6595 39.87 76.6595 39.386C76.6595 38.99 76.5129 38.66 76.2195 38.396C75.9409 38.132 75.3762 37.9707 74.5255 37.912C73.9242 37.868 73.3669 37.802 72.8535 37.714C72.4282 37.9487 72.1202 38.2053 71.9295 38.484C71.7535 38.7627 71.6655 39.0487 71.6655 39.342ZM81.5509 38V27.088H84.0369L84.2569 28.936C84.5943 28.2907 85.0783 27.7773 85.7089 27.396C86.3543 27.0147 87.1096 26.824 87.9749 26.824C89.3243 26.824 90.3729 27.2493 91.1209 28.1C91.8689 28.9507 92.2429 30.1973 92.2429 31.84V38H89.4269V32.104C89.4269 31.1653 89.2363 30.4467 88.8549 29.948C88.4736 29.4493 87.8796 29.2 87.0729 29.2C86.2809 29.2 85.6283 29.4787 85.1149 30.036C84.6163 30.5933 84.3669 31.3707 84.3669 32.368V38H81.5509ZM102.95 38.264C101.586 38.264 100.53 37.8387 99.7819 36.988C99.0486 36.1373 98.6819 34.8907 98.6819 33.248V27.088H101.476V32.984C101.476 33.9227 101.667 34.6413 102.048 35.14C102.429 35.6387 103.031 35.888 103.852 35.888C104.629 35.888 105.267 35.6093 105.766 35.052C106.279 34.4947 106.536 33.7173 106.536 32.72V27.088H109.352V38H106.866L106.646 36.152C106.309 36.7973 105.817 37.3107 105.172 37.692C104.541 38.0733 103.801 38.264 102.95 38.264ZM111.583 42.84V27.088H114.091L114.399 28.65C114.751 28.166 115.213 27.7407 115.785 27.374C116.371 27.0073 117.127 26.824 118.051 26.824C119.077 26.824 119.994 27.0733 120.801 27.572C121.607 28.0707 122.245 28.7527 122.715 29.618C123.184 30.4833 123.419 31.466 123.419 32.566C123.419 33.666 123.184 34.6487 122.715 35.514C122.245 36.3647 121.607 37.0393 120.801 37.538C119.994 38.022 119.077 38.264 118.051 38.264C117.229 38.264 116.511 38.11 115.895 37.802C115.279 37.494 114.78 37.0613 114.399 36.504V42.84H111.583ZM117.457 35.8C118.351 35.8 119.092 35.4993 119.679 34.898C120.265 34.2967 120.559 33.5193 120.559 32.566C120.559 31.6127 120.265 30.828 119.679 30.212C119.092 29.596 118.351 29.288 117.457 29.288C116.547 29.288 115.799 29.596 115.213 30.212C114.641 30.8133 114.355 31.5907 114.355 32.544C114.355 33.4973 114.641 34.282 115.213 34.898C115.799 35.4993 116.547 35.8 117.457 35.8ZM139.38 38.875L137.567 37.0781L142.325 32.3203H131.176V29.6797H142.325L137.567 24.9297L139.38 23.125L147.255 31L139.38 38.875Z" fill="#EDF1E4"/>
</svg>
