<svg width="390" height="60" viewBox="0 0 390 60" fill="none" xmlns="http://www.w3.org/2000/svg">
<rect width="390" height="60" rx="10" fill="url(#paint0_linear_136_3584)"/>
<path d="M129.047 38.264C127.918 38.264 126.92 38.0733 126.055 37.692C125.19 37.296 124.508 36.7387 124.009 36.02C123.51 35.2867 123.254 34.3993 123.239 33.358H126.209C126.238 34.0767 126.495 34.6853 126.979 35.184C127.478 35.668 128.16 35.91 129.025 35.91C129.773 35.91 130.367 35.734 130.807 35.382C131.247 35.0153 131.467 34.5313 131.467 33.93C131.467 33.2993 131.269 32.808 130.873 32.456C130.492 32.104 129.978 31.818 129.333 31.598C128.688 31.378 127.998 31.1433 127.265 30.894C126.077 30.4833 125.168 29.9553 124.537 29.31C123.921 28.6647 123.613 27.8067 123.613 26.736C123.598 25.8267 123.811 25.0493 124.251 24.404C124.706 23.744 125.322 23.238 126.099 22.886C126.876 22.5193 127.771 22.336 128.783 22.336C129.81 22.336 130.712 22.5193 131.489 22.886C132.281 23.2527 132.897 23.766 133.337 24.426C133.792 25.086 134.034 25.8707 134.063 26.78H131.049C131.034 26.2373 130.822 25.7607 130.411 25.35C130.015 24.9247 129.458 24.712 128.739 24.712C128.123 24.6973 127.602 24.8513 127.177 25.174C126.766 25.482 126.561 25.9367 126.561 26.538C126.561 27.0513 126.722 27.462 127.045 27.77C127.368 28.0633 127.808 28.3127 128.365 28.518C128.922 28.7233 129.56 28.9433 130.279 29.178C131.042 29.442 131.738 29.75 132.369 30.102C133 30.454 133.506 30.9233 133.887 31.51C134.268 32.082 134.459 32.8227 134.459 33.732C134.459 34.5387 134.254 35.2867 133.843 35.976C133.432 36.6653 132.824 37.2227 132.017 37.648C131.21 38.0587 130.22 38.264 129.047 38.264ZM137.708 25.394C137.195 25.394 136.769 25.24 136.432 24.932C136.109 24.624 135.948 24.2353 135.948 23.766C135.948 23.2967 136.109 22.9153 136.432 22.622C136.769 22.314 137.195 22.16 137.708 22.16C138.221 22.16 138.639 22.314 138.962 22.622C139.299 22.9153 139.468 23.2967 139.468 23.766C139.468 24.2353 139.299 24.624 138.962 24.932C138.639 25.24 138.221 25.394 137.708 25.394ZM136.3 38V27.088H139.116V38H136.3ZM146.015 34.744C145.487 34.744 144.996 34.6853 144.541 34.568L143.727 35.382C143.977 35.514 144.314 35.624 144.739 35.712C145.165 35.8 145.854 35.888 146.807 35.976C148.259 36.108 149.315 36.4527 149.975 37.01C150.635 37.5673 150.965 38.3373 150.965 39.32C150.965 39.9653 150.789 40.574 150.437 41.146C150.085 41.7327 149.543 42.202 148.809 42.554C148.076 42.9207 147.137 43.104 145.993 43.104C144.439 43.104 143.185 42.8107 142.231 42.224C141.278 41.652 140.801 40.7867 140.801 39.628C140.801 38.6453 141.278 37.7947 142.231 37.076C141.938 36.944 141.681 36.8047 141.461 36.658C141.256 36.5113 141.073 36.3573 140.911 36.196V35.69L142.825 33.666C141.975 32.918 141.549 31.9573 141.549 30.784C141.549 30.0507 141.725 29.3833 142.077 28.782C142.444 28.1807 142.957 27.704 143.617 27.352C144.277 27 145.077 26.824 146.015 26.824C146.631 26.824 147.203 26.912 147.731 27.088H151.867V28.804L149.997 28.936C150.291 29.4933 150.437 30.1093 150.437 30.784C150.437 31.5173 150.261 32.1847 149.909 32.786C149.557 33.3873 149.044 33.864 148.369 34.216C147.709 34.568 146.925 34.744 146.015 34.744ZM146.015 32.588C146.587 32.588 147.057 32.434 147.423 32.126C147.805 31.818 147.995 31.378 147.995 30.806C147.995 30.234 147.805 29.794 147.423 29.486C147.057 29.178 146.587 29.024 146.015 29.024C145.414 29.024 144.93 29.178 144.563 29.486C144.197 29.794 144.013 30.234 144.013 30.806C144.013 31.378 144.197 31.818 144.563 32.126C144.93 32.434 145.414 32.588 146.015 32.588ZM143.375 39.342C143.375 39.8847 143.625 40.288 144.123 40.552C144.637 40.8307 145.26 40.97 145.993 40.97C146.697 40.97 147.269 40.8233 147.709 40.53C148.149 40.2513 148.369 39.87 148.369 39.386C148.369 38.99 148.223 38.66 147.929 38.396C147.651 38.132 147.086 37.9707 146.235 37.912C145.634 37.868 145.077 37.802 144.563 37.714C144.138 37.9487 143.83 38.2053 143.639 38.484C143.463 38.7627 143.375 39.0487 143.375 39.342ZM153.261 38V27.088H155.747L155.967 28.936C156.304 28.2907 156.788 27.7773 157.419 27.396C158.064 27.0147 158.819 26.824 159.685 26.824C161.034 26.824 162.083 27.2493 162.831 28.1C163.579 28.9507 163.953 30.1973 163.953 31.84V38H161.137V32.104C161.137 31.1653 160.946 30.4467 160.565 29.948C160.183 29.4493 159.589 29.2 158.783 29.2C157.991 29.2 157.338 29.4787 156.825 30.036C156.326 30.5933 156.077 31.3707 156.077 32.368V38H153.261ZM174.66 38.264C173.296 38.264 172.24 37.8387 171.492 36.988C170.758 36.1373 170.392 34.8907 170.392 33.248V27.088H173.186V32.984C173.186 33.9227 173.376 34.6413 173.758 35.14C174.139 35.6387 174.74 35.888 175.562 35.888C176.339 35.888 176.977 35.6093 177.476 35.052C177.989 34.4947 178.246 33.7173 178.246 32.72V27.088H181.062V38H178.576L178.356 36.152C178.018 36.7973 177.527 37.3107 176.882 37.692C176.251 38.0733 175.51 38.264 174.66 38.264ZM183.292 42.84V27.088H185.8L186.108 28.65C186.46 28.166 186.922 27.7407 187.494 27.374C188.081 27.0073 188.836 26.824 189.76 26.824C190.787 26.824 191.704 27.0733 192.51 27.572C193.317 28.0707 193.955 28.7527 194.424 29.618C194.894 30.4833 195.128 31.466 195.128 32.566C195.128 33.666 194.894 34.6487 194.424 35.514C193.955 36.3647 193.317 37.0393 192.51 37.538C191.704 38.022 190.787 38.264 189.76 38.264C188.939 38.264 188.22 38.11 187.604 37.802C186.988 37.494 186.49 37.0613 186.108 36.504V42.84H183.292ZM189.166 35.8C190.061 35.8 190.802 35.4993 191.388 34.898C191.975 34.2967 192.268 33.5193 192.268 32.566C192.268 31.6127 191.975 30.828 191.388 30.212C190.802 29.596 190.061 29.288 189.166 29.288C188.257 29.288 187.509 29.596 186.922 30.212C186.35 30.8133 186.064 31.5907 186.064 32.544C186.064 33.4973 186.35 34.282 186.922 34.898C187.509 35.4993 188.257 35.8 189.166 35.8ZM201.566 38V27.088H204.052L204.272 28.936C204.609 28.2907 205.093 27.7773 205.724 27.396C206.369 27.0147 207.125 26.824 207.99 26.824C209.339 26.824 210.388 27.2493 211.136 28.1C211.884 28.9507 212.258 30.1973 212.258 31.84V38H209.442V32.104C209.442 31.1653 209.251 30.4467 208.87 29.948C208.489 29.4493 207.895 29.2 207.088 29.2C206.296 29.2 205.643 29.4787 205.13 30.036C204.631 30.5933 204.382 31.3707 204.382 32.368V38H201.566ZM219.527 38.264C218.471 38.264 217.517 38.022 216.667 37.538C215.831 37.054 215.163 36.3867 214.665 35.536C214.181 34.6707 213.939 33.6733 213.939 32.544C213.939 31.4147 214.188 30.4247 214.687 29.574C215.185 28.7087 215.853 28.034 216.689 27.55C217.539 27.066 218.493 26.824 219.549 26.824C220.59 26.824 221.529 27.066 222.365 27.55C223.215 28.034 223.883 28.7087 224.367 29.574C224.865 30.4247 225.115 31.4147 225.115 32.544C225.115 33.6733 224.865 34.6707 224.367 35.536C223.883 36.3867 223.215 37.054 222.365 37.538C221.514 38.022 220.568 38.264 219.527 38.264ZM219.527 35.822C220.26 35.822 220.898 35.5507 221.441 35.008C221.983 34.4507 222.255 33.6293 222.255 32.544C222.255 31.4587 221.983 30.6447 221.441 30.102C220.898 29.5447 220.267 29.266 219.549 29.266C218.801 29.266 218.155 29.5447 217.613 30.102C217.085 30.6447 216.821 31.4587 216.821 32.544C216.821 33.6293 217.085 34.4507 217.613 35.008C218.155 35.5507 218.793 35.822 219.527 35.822ZM228.72 38L225.53 27.088H228.324L230.216 34.942L232.416 27.088H235.54L237.74 34.942L239.654 27.088H242.448L239.236 38H236.31L233.978 29.838L231.646 38H228.72ZM257.67 38.875L255.857 37.0781L260.615 32.3203H249.467V29.6797H260.615L255.857 24.9297L257.67 23.125L265.545 31L257.67 38.875Z" fill="#EDF1E4"/>
<rect x="0.5" y="0.5" width="389" height="59" rx="9.5" stroke="#EAEDDC" stroke-opacity="0.4"/>
<defs>
<linearGradient id="paint0_linear_136_3584" x1="195" y1="0" x2="195" y2="139.5" gradientUnits="userSpaceOnUse">
<stop stop-color="#011F1A"/>
<stop offset="1" stop-color="#013229"/>
</linearGradient>
</defs>
</svg>
