<svg width="1734" height="685" viewBox="0 0 1734 685" fill="none" xmlns="http://www.w3.org/2000/svg">
<rect x="-61" y="32.9995" width="314.537" height="314.537" rx="32" fill="url(#paint0_linear_866_2312)"/>
<path d="M96.0091 297.765L18.314 276.196L1 81.9995H191.251L173.919 276.166L96.0091 297.765Z" fill="url(#paint1_linear_866_2312)"/>
<path d="M159.08 263.802L173.892 97.8779H96.1255V281.256L159.08 263.802Z" fill="url(#paint2_linear_866_2312)"/>
<path d="M40.6919 169.903L42.8266 193.72H96.1255V169.903H40.6919Z" fill="url(#paint3_linear_866_2312)"/>
<path d="M36.4023 121.695L38.5674 145.513H96.1252V121.695H36.4023Z" fill="url(#paint4_linear_866_2312)"/>
<path d="M96.1256 231.759L96.0212 231.787L69.4955 224.624L67.7999 205.629H43.8909L47.2277 243.026L96.016 256.57L96.1256 256.539V231.759Z" fill="url(#paint5_linear_866_2312)"/>
<path d="M151.406 169.902L155.706 121.695H96.043V145.513H129.604L127.437 169.902H96.043V193.72H125.372L122.607 224.609L96.043 231.779V256.558L144.87 243.026L145.228 239.002L150.825 176.298L151.406 169.902Z" fill="url(#paint6_linear_866_2312)"/>
<rect x="-245" y="364" width="314.537" height="314.537" rx="32" fill="url(#paint7_linear_866_2312)"/>
<path d="M-165.692 608.266L-183 414H7.28001L-10.0277 608.161L-88.0172 629.77" fill="url(#paint8_linear_866_2312)"/>
<rect x="587" y="104.999" width="145.208" height="144.149" rx="15" fill="url(#paint9_linear_866_2312)" stroke="url(#paint10_linear_866_2312)" stroke-width="2"/>
<rect x="753.623" y="104.787" width="145.208" height="144.149" rx="15" fill="url(#paint11_linear_866_2312)" stroke="url(#paint12_linear_866_2312)" stroke-width="2"/>
<path d="M819.714 135.999L816.821 146.075C814.2 146.797 811.7 147.852 809.389 149.167L800.261 144.079L792.081 152.259L797.168 161.387C795.853 163.699 794.797 166.198 794.076 168.819L784 171.712V183.285L794.076 186.178C794.798 188.799 795.853 191.298 797.168 193.61L792.081 202.738L800.261 210.918L809.389 205.83C811.701 207.146 814.2 208.201 816.821 208.923L819.714 218.999H831.286L834.179 208.923C836.8 208.2 839.3 207.146 841.611 205.83L850.739 210.918L858.919 202.738L853.832 193.61C855.147 191.298 856.203 188.799 856.924 186.178L867 183.285V171.712L856.924 168.819C856.202 166.198 855.147 163.699 853.832 161.387L858.919 152.259L850.739 144.079L841.611 149.167C839.299 147.851 836.8 146.796 834.179 146.075L831.286 135.999H819.714ZM825.5 158.345C836.021 158.345 844.654 166.978 844.654 177.499C844.654 188.021 836.021 196.653 825.5 196.653C814.978 196.653 806.346 188.021 806.346 177.499C806.346 166.978 814.978 158.345 825.5 158.345ZM825.5 167.922C820.154 167.922 815.923 172.154 815.923 177.499C815.923 182.845 820.154 187.076 825.5 187.076C830.845 187.076 835.077 182.845 835.077 177.499C835.077 172.154 830.845 167.922 825.5 167.922Z" fill="url(#paint13_linear_866_2312)"/>
<rect x="919.894" y="104.787" width="145.208" height="144.149" rx="15" fill="url(#paint14_linear_866_2312)" stroke="url(#paint15_linear_866_2312)" stroke-width="2"/>
<path d="M981 187.998L959 176.998L981 165.998V143.999L948 165.998V187.998L981 209.998V187.998Z" fill="url(#paint16_linear_866_2312)"/>
<path d="M1003 165.998L1025 176.998L1003 187.998V209.998L1036 187.998V165.998L1003 143.999V165.998Z" fill="url(#paint17_linear_866_2312)"/>
<rect x="417.904" y="124.909" width="150.503" height="150.503" rx="15" fill="url(#paint18_linear_866_2312)" stroke="url(#paint19_linear_866_2312)" stroke-width="2"/>
<path d="M513.203 239.788L517.301 235.689L528.692 224.299L532.79 220.2L519.408 206.818L499.82 226.406L513.203 239.788Z" fill="url(#paint20_linear_866_2312)"/>
<path d="M462.474 169.471C451.174 180.777 451.177 199.089 462.474 210.393C466.815 214.734 472.234 217.426 477.864 218.42L478.209 218.483L478.564 218.493H478.629C479.441 218.488 486.273 219.023 493.134 222.097L515.168 200.064C513.92 197.364 513.055 194.657 512.499 192.293C511.995 190.17 511.726 188.334 511.58 187.063C511.509 186.423 511.473 185.926 511.446 185.6C511.436 185.438 511.431 185.32 511.428 185.248C511.426 185.186 511.426 185.185 511.426 185.185L511.415 184.789L511.342 184.409C510.284 178.94 507.621 173.696 503.395 169.47C492.092 158.173 473.778 158.176 462.474 169.471ZM475.705 175.271C467.293 183.683 467.295 197.316 475.705 205.727C478.912 208.934 482.879 210.91 487.026 211.674C480.291 212.911 473.085 210.932 467.88 205.729C462.435 200.283 460.537 192.65 462.142 185.658C463.02 181.852 464.913 178.236 467.877 175.273C470.831 172.318 474.44 170.44 478.235 169.565C481.121 168.898 484.111 168.793 487.02 169.327C482.876 170.09 478.912 172.065 475.704 175.271L475.705 175.271Z" fill="url(#paint21_linear_866_2312)"/>
<path fill-rule="evenodd" clip-rule="evenodd" d="M629.42 146.418C637.762 138.139 647.789 133.999 659.5 133.999C671.274 133.999 681.301 138.139 689.58 146.418C697.859 154.793 702 164.82 702 176.499C702 188.21 697.859 198.206 689.58 206.485C681.238 214.828 671.211 218.999 659.5 218.999C647.789 218.999 637.763 214.828 629.42 206.485C621.139 198.205 617 188.21 617 176.499C617 164.82 621.139 154.793 629.42 146.418ZM688.589 178.765V158.601H668.472L675.413 165.449L663.089 177.868L651.661 166.44L628.192 189.957L634.567 196.332L651.661 179.096L663.089 190.476L681.647 171.823L688.589 178.765Z" fill="url(#paint22_linear_866_2312)"/>
<rect x="901" y="582" width="314.537" height="314.537" rx="32" transform="rotate(180 901 582)" fill="url(#paint23_linear_866_2312)"/>
<path d="M636 316H851.77V531.77H636V316Z" fill="url(#paint24_linear_866_2312)"/>
<path d="M692.734 496.313L709.246 486.321C712.431 491.969 715.329 496.747 722.28 496.747C728.943 496.747 733.144 494.141 733.144 484.003V415.06H753.421V484.29C753.421 505.292 741.11 514.851 723.149 514.851C706.929 514.851 697.513 506.45 692.733 496.312" fill="url(#paint25_linear_866_2312)"/>
<path d="M764.435 494.14L780.945 484.581C785.291 491.679 790.94 496.893 800.933 496.893C809.335 496.893 814.692 492.692 814.692 486.898C814.692 479.946 809.189 477.484 799.919 473.429L794.851 471.255C780.221 465.028 770.517 457.207 770.517 440.695C770.517 425.487 782.104 413.9 800.209 413.9C813.1 413.9 822.37 418.39 829.031 430.122L813.244 440.26C809.768 434.033 806.003 431.571 800.21 431.571C794.271 431.571 790.505 435.337 790.505 440.26C790.505 446.344 794.271 448.807 802.96 452.573L808.029 454.745C825.265 462.132 834.97 469.663 834.97 486.609C834.97 504.859 820.631 514.852 801.368 514.852C782.539 514.852 770.372 505.873 764.435 494.14Z" fill="url(#paint26_linear_866_2312)"/>
<rect x="1085" y="351" width="314.537" height="314.537" rx="32" transform="rotate(-90 1085 351)" fill="url(#paint27_linear_866_2312)"/>
<path d="M1320.4 154.935C1317.88 154.069 1315.27 153.25 1312.59 152.475C1313.03 150.674 1313.44 148.897 1313.8 147.15C1319.71 118.464 1315.84 95.3545 1302.65 87.7458C1290 80.4501 1269.31 88.0571 1248.41 106.243C1246.4 107.991 1244.38 109.843 1242.37 111.783C1241.03 110.499 1239.69 109.259 1238.35 108.072C1216.45 88.6269 1194.5 80.4324 1181.32 88.0631C1168.68 95.38 1164.94 117.105 1170.26 144.291C1170.77 146.917 1171.37 149.599 1172.05 152.325C1168.94 153.207 1165.94 154.147 1163.07 155.147C1137.4 164.099 1121 178.129 1121 192.681C1121 207.71 1138.6 222.785 1165.35 231.926C1167.46 232.647 1169.65 233.329 1171.9 233.977C1171.17 236.926 1170.53 239.815 1170 242.634C1164.93 269.348 1168.89 290.56 1181.49 297.831C1194.51 305.339 1216.37 297.621 1237.64 279.021C1239.33 277.551 1241.01 275.992 1242.71 274.357C1244.9 276.468 1247.08 278.465 1249.26 280.339C1269.87 298.075 1290.23 305.237 1302.82 297.946C1315.83 290.416 1320.06 267.629 1314.57 239.905C1314.15 237.788 1313.66 235.625 1313.11 233.423C1314.65 232.969 1316.16 232.501 1317.62 232.014C1345.43 222.803 1363.52 207.911 1363.52 192.681C1363.52 178.076 1346.59 163.952 1320.4 154.935ZM1314.37 222.18C1313.04 222.619 1311.68 223.043 1310.29 223.455C1307.22 213.738 1303.08 203.406 1298.01 192.731C1302.85 182.311 1306.83 172.111 1309.82 162.457C1312.3 163.175 1314.7 163.932 1317.02 164.731C1339.47 172.457 1353.16 183.879 1353.16 192.681C1353.16 202.056 1338.37 214.226 1314.37 222.18ZM1304.41 241.917C1306.83 254.176 1307.18 265.26 1305.57 273.924C1304.13 281.71 1301.22 286.901 1297.63 288.98C1289.99 293.404 1273.64 287.653 1256.02 272.485C1254 270.746 1251.96 268.89 1249.92 266.925C1256.75 259.451 1263.58 250.763 1270.25 241.114C1281.97 240.073 1293.05 238.373 1303.09 236.051C1303.59 238.046 1304.03 240.003 1304.41 241.917ZM1203.68 288.215C1196.21 290.853 1190.26 290.928 1186.67 288.855C1179.02 284.443 1175.84 267.412 1180.18 244.566C1180.67 241.949 1181.27 239.262 1181.95 236.515C1191.88 238.711 1202.88 240.292 1214.63 241.245C1221.34 250.687 1228.37 259.366 1235.45 266.965C1233.9 268.459 1232.36 269.881 1230.83 271.22C1221.42 279.445 1211.99 285.281 1203.68 288.215ZM1168.7 222.123C1156.87 218.081 1147.11 212.828 1140.41 207.096C1134.4 201.944 1131.36 196.83 1131.36 192.681C1131.36 183.85 1144.53 172.586 1166.48 164.931C1169.15 164.002 1171.94 163.126 1174.83 162.304C1177.87 172.175 1181.85 182.496 1186.65 192.933C1181.78 203.524 1177.75 214.01 1174.68 223.997C1172.62 223.404 1170.62 222.78 1168.7 222.123ZM1180.42 142.302C1175.87 119.009 1178.89 101.439 1186.51 97.0294C1194.62 92.3324 1212.56 99.0294 1231.47 115.819C1232.68 116.892 1233.89 118.016 1235.11 119.178C1228.07 126.744 1221.1 135.357 1214.45 144.744C1203.05 145.801 1192.13 147.499 1182.09 149.773C1181.46 147.234 1180.9 144.74 1180.42 142.302ZM1285.03 168.133C1282.63 163.988 1280.17 159.941 1277.66 156.004C1285.4 156.983 1292.81 158.281 1299.77 159.87C1297.68 166.569 1295.08 173.573 1292.01 180.753C1289.81 176.576 1287.48 172.365 1285.03 168.133ZM1242.37 126.582C1247.15 131.759 1251.94 137.539 1256.64 143.81C1251.9 143.586 1247.1 143.47 1242.26 143.47C1237.46 143.47 1232.7 143.584 1227.98 143.804C1232.69 137.591 1237.52 131.818 1242.37 126.582ZM1199.44 168.204C1197.04 172.361 1194.76 176.549 1192.59 180.745C1189.58 173.59 1187 166.554 1184.89 159.76C1191.81 158.212 1199.19 156.946 1206.87 155.986C1204.33 159.959 1201.84 164.037 1199.44 168.204ZM1207.1 230.114C1199.15 229.228 1191.66 228.027 1184.75 226.521C1186.89 219.606 1189.53 212.42 1192.61 205.111C1194.78 209.304 1197.07 213.494 1199.48 217.66C1201.94 221.903 1204.48 226.06 1207.1 230.114ZM1242.66 259.51C1237.75 254.212 1232.85 248.352 1228.07 242.048C1232.71 242.23 1237.45 242.323 1242.26 242.323C1247.2 242.323 1252.09 242.212 1256.9 241.998C1252.17 248.415 1247.41 254.285 1242.66 259.51ZM1292.11 204.739C1295.35 212.127 1298.08 219.275 1300.25 226.072C1293.22 227.677 1285.63 228.969 1277.63 229.929C1280.15 225.939 1282.63 221.823 1285.07 217.588C1287.55 213.304 1289.89 209.014 1292.11 204.739ZM1276.1 212.413C1272.31 218.986 1268.42 225.26 1264.47 231.184C1257.27 231.698 1249.84 231.963 1242.26 231.963C1234.71 231.963 1227.37 231.729 1220.3 231.27C1216.19 225.269 1212.21 218.976 1208.45 212.469C1204.69 205.98 1201.23 199.436 1198.1 192.929C1201.23 186.407 1204.68 179.856 1208.42 173.379L1208.42 173.38C1212.16 166.886 1216.1 160.623 1220.17 154.66C1227.39 154.114 1234.78 153.83 1242.26 153.83C1249.77 153.83 1257.17 154.117 1264.38 154.667C1268.39 160.586 1272.31 166.829 1276.07 173.324C1279.87 179.892 1283.36 186.4 1286.52 192.782C1283.37 199.274 1279.89 205.847 1276.1 212.413ZM1297.47 96.7212C1305.59 101.404 1308.75 120.292 1303.65 145.059C1303.32 146.64 1302.96 148.249 1302.56 149.881C1292.5 147.559 1281.57 145.832 1270.13 144.758C1263.47 135.269 1256.56 126.642 1249.63 119.173C1251.5 117.38 1253.36 115.671 1255.21 114.058C1273.11 98.4764 1289.85 92.3246 1297.47 96.7212ZM1242.26 171.025C1254.22 171.025 1263.91 180.72 1263.91 192.681C1263.91 204.641 1254.22 214.337 1242.26 214.337C1230.3 214.337 1220.6 204.641 1220.6 192.681C1220.6 180.72 1230.3 171.025 1242.26 171.025Z" fill="url(#paint28_linear_866_2312)"/>
<rect x="1600" y="540.999" width="314.537" height="314.537" rx="32" transform="rotate(-90 1600 540.999)" fill="url(#paint29_linear_866_2312)"/>
<path d="M1757.74 490.77C1754.77 490.77 1752 489.977 1749.42 488.589L1723.05 472.93C1719.09 470.749 1721.07 469.956 1722.26 469.56C1727.61 467.776 1728.6 467.379 1734.15 464.208C1734.75 463.811 1735.54 464.009 1736.14 464.406L1756.36 476.498C1757.15 476.894 1758.14 476.894 1758.73 476.498L1837.83 430.707C1838.62 430.311 1839.02 429.518 1839.02 428.527V337.144C1839.02 336.153 1838.62 335.36 1837.83 334.964L1758.73 289.371C1757.94 288.975 1756.95 288.975 1756.36 289.371L1677.26 334.964C1676.47 335.36 1676.07 336.351 1676.07 337.144V428.527C1676.07 429.32 1676.47 430.311 1677.26 430.707L1698.87 443.196C1710.57 449.142 1717.9 442.204 1717.9 435.266V345.073C1717.9 343.884 1718.89 342.694 1720.28 342.694H1730.39C1731.58 342.694 1732.77 343.686 1732.77 345.073V435.266C1732.77 450.926 1724.24 460.045 1709.38 460.045C1704.82 460.045 1701.25 460.045 1691.14 455.089L1670.33 443.196C1665.17 440.222 1662 434.672 1662 428.725V337.342C1662 331.396 1665.17 325.845 1670.33 322.872L1749.42 277.081C1754.37 274.306 1761.11 274.306 1766.07 277.081L1845.16 322.872C1850.32 325.845 1853.49 331.396 1853.49 337.342V428.725C1853.49 434.672 1850.32 440.222 1845.16 443.196L1766.07 488.986C1763.49 490.175 1760.52 490.77 1757.74 490.77ZM1782.13 427.932C1747.44 427.932 1740.3 412.074 1740.3 398.594C1740.3 397.405 1741.29 396.216 1742.68 396.216H1752.99C1754.18 396.216 1755.17 397.009 1755.17 398.198C1756.75 408.704 1761.31 413.858 1782.32 413.858C1798.97 413.858 1806.11 410.092 1806.11 401.171C1806.11 396.018 1804.13 392.251 1778.16 389.674C1756.55 387.494 1743.07 382.736 1743.07 365.491C1743.07 349.434 1756.55 339.919 1779.15 339.919C1804.53 339.919 1817.01 348.641 1818.6 367.671C1818.6 368.266 1818.4 368.86 1818 369.455C1817.61 369.852 1817.01 370.248 1816.42 370.248H1806.11C1805.12 370.248 1804.13 369.455 1803.93 368.464C1801.55 357.562 1795.41 353.993 1779.15 353.993C1760.92 353.993 1758.73 360.337 1758.73 365.094C1758.73 370.843 1761.31 372.627 1785.89 375.798C1810.27 378.97 1821.77 383.529 1821.77 400.577C1821.57 418.021 1807.3 427.932 1782.13 427.932Z" fill="url(#paint30_linear_866_2312)"/>
<rect x="1289" y="844.999" width="314.537" height="314.537" rx="32" transform="rotate(-90 1289 844.999)" fill="url(#paint31_linear_866_2312)"/>
<path d="M1445.9 619.999C1415.53 619.999 1396.54 635.11 1388.95 665.332C1400.34 650.221 1413.63 644.555 1428.82 648.332C1437.48 650.488 1443.67 656.743 1450.53 663.666C1461.7 674.945 1474.62 687.999 1502.85 687.999C1533.22 687.999 1552.21 672.888 1559.8 642.666C1548.41 657.777 1535.12 663.443 1519.93 659.666C1511.27 657.51 1505.08 651.256 1498.22 644.332C1487.05 633.053 1474.13 619.999 1445.9 619.999ZM1388.95 687.999C1358.58 687.999 1339.59 703.11 1332 733.332C1343.39 718.221 1356.68 712.555 1371.87 716.332C1380.53 718.488 1386.72 724.743 1393.58 731.666C1404.75 742.945 1417.67 755.999 1445.9 755.999C1476.27 755.999 1495.26 740.888 1502.85 710.666C1491.46 725.777 1478.17 731.443 1462.99 727.666C1454.32 725.51 1448.13 719.256 1441.27 712.332C1430.1 701.053 1417.18 687.999 1388.95 687.999Z" fill="url(#paint32_linear_866_2312)"/>
<rect x="699.729" y="711.738" width="112.377" height="112.377" rx="15" transform="rotate(180 699.729 711.738)" fill="url(#paint33_linear_866_2312)" stroke="url(#paint34_linear_866_2312)" stroke-width="2"/>
<path d="M612 649.235L628.041 664.916L624.276 687L644 676.574L663.724 687L659.959 664.916L676 649.235L653.903 646.033L644 626L634.097 646.033L612 649.235Z" fill="url(#paint35_linear_866_2312)"/>
<rect x="271.756" y="89.96" width="127.204" height="127.204" rx="15" fill="url(#paint36_linear_866_2312)" stroke="url(#paint37_linear_866_2312)" stroke-width="2"/>
<path d="M334.691 123.743C340.774 123.743 346.589 125.554 351.53 128.892L345.372 132.827L369.143 145.159L367.94 118.406L361.144 122.751C353.757 116.466 344.484 113 334.693 113C315.925 113 299.603 125.681 295 143.843L305.414 146.479C308.808 133.092 320.848 123.743 334.693 123.743L334.691 123.743Z" fill="url(#paint38_linear_866_2312)"/>
<path d="M363.935 161.317C360.537 174.722 348.51 184.087 334.691 184.087C328.598 184.087 322.768 182.265 317.812 178.906L323.977 174.968L300.205 162.636L301.409 189.388L308.207 185.045C315.607 191.354 324.894 194.831 334.691 194.831C353.433 194.831 369.742 182.136 374.349 163.954L363.935 161.317Z" fill="url(#paint39_linear_866_2312)"/>
<rect x="569" y="465" width="170.625" height="170.625" rx="15" transform="rotate(180 569 465)" fill="url(#paint40_linear_866_2312)" stroke="url(#paint41_linear_866_2312)" stroke-width="2"/>
<path fill-rule="evenodd" clip-rule="evenodd" d="M475.375 326H516L487.224 368.193L515.324 367.518L456.417 433L477.746 387.772H451L475.375 326Z" fill="url(#paint42_linear_866_2312)"/>
<rect x="272" y="236" width="107.082" height="107.082" rx="15" fill="url(#paint43_linear_866_2312)" stroke="url(#paint44_linear_866_2312)" stroke-width="2"/>
<path d="M353.134 298.751C352.553 297.976 351.864 297.288 351.103 296.716C351.289 295.39 351.411 294.065 351.397 292.725C351.39 291.414 351.246 290.125 351.067 288.828C350.744 286.532 350.047 284.366 349.136 282.244C348.246 280.165 347.04 278.297 345.654 276.515C344.276 274.74 342.646 273.248 340.873 271.886C339.086 270.51 337.105 269.445 335.023 268.605C334.85 267.055 334.319 265.534 333.436 264.252C332.309 262.608 330.78 261.399 328.943 260.652C325.368 259.197 321.053 260.247 318.462 263.108C317.062 264.658 316.222 266.592 316 268.605C312.094 270.199 308.541 272.662 305.82 275.935C302.935 279.412 300.853 283.57 300.07 288.053C299.826 289.451 299.661 290.878 299.625 292.298C299.589 293.782 299.704 295.26 299.92 296.73C298.24 297.969 296.955 299.751 296.359 301.851C295.297 305.596 296.646 309.746 299.697 312.122C302.475 314.288 306.251 314.751 309.438 313.346C312.863 316.04 316.868 317.953 321.183 318.633C323.566 319.003 325.949 319.133 328.347 318.836C330.701 318.547 332.977 318.032 335.166 317.105C336.43 316.576 337.657 315.997 338.827 315.287C339.782 314.708 340.694 314.049 341.57 313.346C341.979 313.527 342.402 313.686 342.84 313.81C346.415 314.831 350.5 313.585 352.826 310.637C353.149 310.224 353.457 309.797 353.723 309.341C353.73 309.326 353.737 309.312 353.752 309.297C355.589 306.009 355.41 301.772 353.134 298.751L353.134 298.751ZM345.575 294.825C344.491 294.811 343.407 294.977 342.395 295.332C338.511 296.687 335.791 300.446 335.863 304.625C335.891 306.349 336.387 308 337.234 309.427C336.006 310.289 334.7 311.028 333.336 311.644C331.692 312.31 329.976 312.781 328.232 313.049C326.423 313.259 324.607 313.259 322.798 313.049C321.046 312.774 319.338 312.303 317.694 311.644C316.33 311.035 315.038 310.296 313.817 309.442C315.296 306.907 315.626 303.691 314.485 300.931C313.688 298.99 312.36 297.346 310.572 296.245C309.058 295.31 307.234 294.803 305.454 294.832C305.325 293.275 305.354 291.718 305.533 290.161C305.806 288.386 306.273 286.648 306.933 284.982C306.883 285.09 306.84 285.199 306.789 285.315C306.883 285.083 306.983 284.851 307.077 284.62C307.026 284.736 306.983 284.851 306.933 284.967C307.636 283.374 308.505 281.874 309.532 280.477C309.453 280.571 309.381 280.672 309.302 280.774C309.453 280.578 309.603 280.382 309.754 280.187C309.682 280.281 309.611 280.375 309.546 280.469C310.623 279.108 311.85 277.876 313.193 276.783C314.427 275.856 315.755 275.044 317.148 274.385C317.148 274.392 317.155 274.4 317.155 274.407C318.067 276.051 319.503 277.456 321.175 278.296C323.056 279.238 325.095 279.52 327.162 279.195C329.983 278.745 332.481 276.884 333.874 274.392C335.267 275.059 336.595 275.863 337.829 276.79C339.179 277.876 340.399 279.115 341.476 280.477C341.404 280.382 341.34 280.288 341.268 280.194C341.419 280.39 341.569 280.585 341.72 280.781C341.641 280.679 341.569 280.585 341.491 280.484C342.517 281.882 343.393 283.388 344.089 284.975C344.039 284.859 343.996 284.743 343.946 284.627C344.039 284.859 344.139 285.09 344.233 285.322C344.19 285.214 344.139 285.105 344.089 284.989C344.75 286.655 345.223 288.393 345.489 290.168C345.676 291.711 345.697 293.275 345.575 294.825L345.575 294.825Z" fill="url(#paint45_linear_866_2312)"/>
<rect x="1604" y="207" width="108.141" height="107.082" rx="15" transform="rotate(-90 1604 207)" fill="url(#paint46_linear_866_2312)" stroke="url(#paint47_linear_866_2312)" stroke-width="2"/>
<path fill-rule="evenodd" clip-rule="evenodd" d="M1637.88 140.888H1637.99V135.729H1637.66C1637.33 135.729 1637 135.505 1637 135.169V128.44C1637 128.103 1637.33 127.767 1637.66 127.767H1637.99V121.935C1637.99 119.243 1640.19 117 1642.83 117H1672.06C1674.81 117 1676.9 119.243 1676.9 121.935V127.879H1677.34C1677.67 127.879 1678 128.215 1678 128.552V145.823C1678 146.159 1677.67 146.496 1677.34 146.496H1676.9V184.066C1676.9 186.757 1674.81 189 1672.06 189H1642.83C1640.19 189 1637.99 186.757 1637.99 184.066V151.767H1637.88C1637.55 151.767 1637.22 151.543 1637.22 151.206V141.561C1637.22 141.225 1637.55 140.888 1637.88 140.888ZM1646.34 121.823H1649.42C1649.2 121.935 1649.09 122.272 1649.09 122.496C1649.09 123.057 1649.53 123.505 1650.08 123.505H1664.81C1665.36 123.505 1665.8 123.057 1665.8 122.496C1665.8 122.272 1665.69 121.935 1665.47 121.823H1668.55C1670.64 121.823 1672.28 123.505 1672.28 125.524V180.253C1672.28 182.272 1670.64 184.066 1668.55 184.066H1646.34C1644.36 184.066 1642.61 182.272 1642.61 180.253V125.524C1642.61 123.505 1644.36 121.823 1646.34 121.823ZM1644.91 120.029H1669.98C1672.17 120.029 1674.04 121.935 1674.04 124.178V181.711C1674.04 184.066 1672.17 185.972 1669.98 185.972H1644.91C1642.72 185.972 1640.85 184.066 1640.85 181.711V124.178C1640.85 121.935 1642.72 120.029 1644.91 120.029Z" fill="url(#paint48_linear_866_2312)"/>
<rect x="1730" y="207" width="108.141" height="107.082" rx="15" transform="rotate(-90 1730 207)" fill="url(#paint49_linear_866_2312)" stroke="url(#paint50_linear_866_2312)" stroke-width="2"/>
<rect x="1441" y="511" width="143.09" height="143.09" rx="15" transform="rotate(-90 1441 511)" fill="url(#paint51_linear_866_2312)" stroke="url(#paint52_linear_866_2312)" stroke-width="2"/>
<path d="M1512.5 397C1488.51 397 1469 416.283 1469 440C1469 463.718 1488.51 483 1512.5 483C1536.49 483 1556 463.718 1556 440C1556 416.283 1536.49 397 1512.5 397ZM1545.29 423.434H1534.2C1532.74 416.916 1530.45 411.213 1527.61 406.777C1535.21 410.217 1541.44 416.102 1545.29 423.434ZM1549.31 440C1549.31 443.441 1548.77 446.79 1547.85 449.959H1535.3C1535.67 446.79 1535.94 443.441 1535.94 440C1535.94 436.56 1535.67 433.301 1535.3 430.042H1547.85C1548.77 433.211 1549.31 436.56 1549.31 440ZM1475.69 440C1475.69 436.56 1476.23 433.211 1477.15 430.042H1489.7C1489.33 433.211 1489.06 436.56 1489.06 440C1489.06 443.441 1489.33 446.7 1489.7 449.959H1477.15C1476.23 446.79 1475.69 443.441 1475.69 440ZM1495.74 440C1495.74 436.47 1496.02 433.211 1496.38 430.042H1509.11V449.958H1496.47C1496.02 446.789 1495.74 443.531 1495.74 440ZM1515.89 404.514C1520.47 406.868 1524.86 413.657 1527.34 423.434H1515.89V404.514ZM1509.11 404.514V423.434H1497.76C1500.14 413.657 1504.53 406.777 1509.11 404.514ZM1509.11 456.567V475.487C1504.53 473.133 1500.14 466.344 1497.66 456.567H1509.11ZM1515.89 475.487V456.567H1527.34C1524.86 466.344 1520.47 473.224 1515.89 475.487ZM1515.89 449.958V430.043H1528.62C1529.08 433.12 1529.26 436.47 1529.26 440.001C1529.26 443.531 1528.98 446.79 1528.62 449.959L1515.89 449.958ZM1497.48 406.868C1494.55 411.304 1492.35 416.916 1490.89 423.525H1479.71C1483.56 416.102 1489.79 410.218 1497.48 406.868ZM1479.71 456.567H1490.8C1492.26 463.085 1494.55 468.788 1497.39 473.224C1489.79 469.783 1483.56 463.899 1479.71 456.567ZM1527.52 473.133C1530.45 468.697 1532.65 463.085 1534.11 456.476H1545.19C1541.44 463.899 1535.21 469.783 1527.52 473.133Z" fill="url(#paint53_linear_866_2312)"/>
<rect x="272" y="358" width="107.082" height="107.082" rx="15" fill="url(#paint54_linear_866_2312)" stroke="url(#paint55_linear_866_2312)" stroke-width="2"/>
<path d="M349.977 431.647C349.977 436.8 345.679 441 340.403 441C329.18 440.841 327.321 425.359 338.08 422.635V400.365C334.687 399.524 332.015 396.914 331.155 393.6H312.054V405.064C322.58 408.038 320.536 423.225 309.475 423.361C298.088 423.202 296.438 407.403 307.407 404.906V389.06H331.178C332.223 385.02 335.965 382 340.426 382C351.649 382.159 353.508 397.641 342.75 400.365V422.612C346.886 423.634 350 427.289 350 431.647L349.977 431.647Z" fill="url(#paint56_linear_866_2312)"/>
<rect x="1417.65" y="165.271" width="164.27" height="165.33" rx="15" transform="rotate(-90 1417.65 165.271)" fill="url(#paint57_linear_866_2312)" stroke="url(#paint58_linear_866_2312)" stroke-width="2"/>
<path d="M1450 72.1807H1480.2V93.0694H1450V72.1807Z" fill="url(#paint59_linear_866_2312)"/>
<path d="M1486.49 45.0005H1515.43V65.8892H1486.49V45.0005Z" fill="url(#paint60_linear_866_2312)"/>
<path d="M1450 45.0005H1480.2V65.8892H1450V45.0005Z" fill="url(#paint61_linear_866_2312)"/>
<path d="M1450 99.2349H1480.2V120.501H1450V99.2349Z" fill="url(#paint62_linear_866_2312)"/>
<path d="M1521.73 45.0005H1550.67V65.8892H1521.73V45.0005Z" fill="url(#paint63_linear_866_2312)"/>
<path d="M1486.49 72.1807H1550.67V120.501H1486.49V72.1807Z" fill="url(#paint64_linear_866_2312)"/>
<rect x="1618.87" y="665.14" width="107.082" height="107.082" rx="15" transform="rotate(-90 1618.87 665.14)" fill="url(#paint65_linear_866_2312)" stroke="url(#paint66_linear_866_2312)" stroke-width="2"/>
<path d="M1677.33 605.259L1694.91 598.48L1699 610.344L1681.12 616.352L1692.33 631.451L1682.33 639L1671.12 623.131L1660.52 639L1650.36 631.451L1661.58 616.352L1644 610.344L1648.09 598.48L1665.21 605.259V586H1677.33V605.259Z" fill="url(#paint67_linear_866_2312)"/>
<rect x="1066" y="579.998" width="147.326" height="146.267" rx="15" transform="rotate(180 1066 579.998)" fill="url(#paint68_linear_866_2312)" stroke="url(#paint69_linear_866_2312)" stroke-width="2"/>
<path d="M1022.82 500.454V476.182H998.545V463.999H974.272V476.182H950V500.454H962.183V524.726H950V548.999H974.272V536.815H998.545V548.999H1022.82V524.726H1035V500.454H1022.82Z" fill="url(#paint70_linear_866_2312)"/>
<rect x="1066" y="414.146" width="147.326" height="146.267" rx="15" transform="rotate(180 1066 414.146)" fill="url(#paint71_linear_866_2312)" stroke="url(#paint72_linear_866_2312)" stroke-width="2"/>
<path d="M1036 319.009L991.497 297L947 319.009L991.497 341.022L1036 319.009Z" fill="url(#paint73_linear_866_2312)"/>
<path d="M991.498 349.632L964.04 335.624L947 341.3L991.497 363.989L1036 341.3L1020.36 335.28L991.498 349.632Z" fill="url(#paint74_linear_866_2312)"/>
<path d="M991.498 371.642L964.04 357.645L947 363.314L991.497 386L1036 363.314L1020.36 357.291L991.498 371.642Z" fill="url(#paint75_linear_866_2312)"/>
<rect x="1290" y="500" width="132.499" height="132.499" rx="15" transform="rotate(-90 1290 500)" fill="url(#paint76_linear_866_2312)" stroke="url(#paint77_linear_866_2312)" stroke-width="2"/>
<path d="M1399.89 432.014C1399.37 427.604 1397.63 423.428 1394.86 419.957C1392.09 416.486 1388.41 413.859 1384.23 412.374C1380.04 410.889 1375.53 410.604 1371.19 411.553C1366.85 412.501 1362.87 414.645 1359.69 417.741L1370.49 430.309L1370.69 430.089C1371.38 429.27 1372.24 428.614 1373.22 428.167C1374.19 427.72 1375.25 427.494 1376.32 427.504C1378.05 427.417 1379.75 427.991 1381.07 429.109C1382.39 430.227 1383.24 431.806 1383.44 433.526C1383.47 433.856 1383.5 434.214 1383.5 434.489C1383.49 435.436 1383.3 436.372 1382.92 437.241C1382.55 438.111 1382 438.896 1381.31 439.55C1380.63 440.204 1379.82 440.714 1378.93 441.049C1378.05 441.384 1377.1 441.538 1376.16 441.501C1375.1 441.52 1374.05 441.297 1373.09 440.849C1372.14 440.401 1371.29 439.74 1370.63 438.916C1368.27 436.163 1356.11 421.996 1352.97 418.374C1350.75 416.026 1348.07 414.16 1345.09 412.892C1342.12 411.625 1338.91 410.982 1335.68 411.004C1329.83 410.908 1324.16 413.016 1319.79 416.908C1315.43 420.8 1312.68 426.193 1312.11 432.014C1312.03 432.839 1312 433.691 1312 434.544C1312 435.396 1312.03 436.249 1312.11 437.074C1312.69 442.893 1315.43 448.282 1319.8 452.174C1324.16 456.065 1329.83 458.174 1335.68 458.084C1341.89 458.127 1347.87 455.716 1352.31 451.374L1341.51 438.779L1341.31 438.999C1340.62 439.817 1339.76 440.473 1338.78 440.92C1337.81 441.367 1336.75 441.594 1335.68 441.584C1333.95 441.67 1332.25 441.096 1330.93 439.978C1329.61 438.86 1328.76 437.281 1328.56 435.561C1328.53 435.231 1328.5 434.874 1328.5 434.544C1328.5 434.214 1328.53 433.856 1328.56 433.526C1328.76 431.806 1329.61 430.227 1330.93 429.109C1332.25 427.991 1333.95 427.417 1335.68 427.504C1336.75 427.494 1337.81 427.72 1338.78 428.167C1339.76 428.614 1340.62 429.27 1341.31 430.089C1343.69 432.86 1354.94 445.99 1358.97 450.659C1362.22 454.044 1366.39 456.398 1370.96 457.424C1375.54 458.45 1380.32 458.103 1384.7 456.426C1389.08 454.75 1392.87 451.819 1395.59 448C1398.31 444.181 1399.84 439.643 1400 434.956V434.544C1400 433.691 1399.97 432.839 1399.89 432.014Z" fill="url(#paint78_linear_866_2312)"/>
<rect x="87" y="365" width="165.33" height="165.33" rx="15" fill="url(#paint79_linear_866_2312)" stroke="url(#paint80_linear_866_2312)" stroke-width="2"/>
<path d="M208.726 451.228L201.558 458.326C201.815 458.973 201.968 459.675 201.968 460.414C201.968 463.584 199.372 466.155 196.17 466.155C192.967 466.155 190.371 463.584 190.371 460.414C190.371 457.242 192.967 454.672 196.17 454.672C196.916 454.672 197.624 454.824 198.278 455.077L206.805 446.633H222.065C219.377 440.546 214.103 435.835 207.615 433.865C207.705 433.156 207.766 432.439 207.766 431.707C207.766 422.194 199.978 414.484 190.372 414.484C189.178 414.484 188.017 414.613 186.894 414.842V432.192C188.94 433.079 190.372 435.096 190.372 437.448C190.372 440.619 187.777 443.189 184.574 443.189C181.372 443.189 178.777 440.619 178.777 437.449C178.777 435.096 180.209 433.08 182.255 432.193V411.775C179.271 406.557 173.671 403 167.18 403C159.155 403 152.416 408.391 150.411 415.71C148.422 414.926 146.26 414.484 143.989 414.484C142.798 414.484 141.634 414.603 140.511 414.829V423.669H156.075C156.97 421.643 159.007 420.225 161.383 420.225C164.585 420.225 167.18 422.795 167.18 425.966C167.18 429.137 164.585 431.708 161.383 431.708C159.006 431.708 156.97 430.29 156.075 428.264L135.872 428.263V416.48C130.357 419.368 126.596 425.1 126.596 431.707C126.596 433.956 127.044 436.097 127.834 438.067C123.148 439.326 119.258 442.476 117.028 446.634H138.681C139.577 444.609 141.614 443.19 143.989 443.19C147.192 443.19 149.788 445.761 149.788 448.931C149.788 452.103 147.192 454.673 143.989 454.673C141.613 454.673 139.577 453.254 138.681 451.227H115.387C115.156 452.344 115 453.488 115 454.672C115 464.185 122.787 471.895 132.394 471.895H150.798C152.26 475.985 155.242 479.353 159.064 481.364V470.944L167.59 462.501C167.333 461.852 167.18 461.151 167.18 460.413C167.18 457.241 169.777 454.671 172.978 454.671C176.181 454.671 178.777 457.241 178.777 460.413C178.777 463.583 176.181 466.154 172.978 466.154C172.233 466.154 171.525 466.002 170.87 465.747L163.702 472.846V482.989C164.831 483.217 165.984 483.376 167.18 483.376H179.799L181.945 493H200.525L198.805 478.683C199.466 478.739 200.131 478.783 200.807 478.783C213.617 478.785 224 468.503 224 455.821C224 454.246 223.822 452.714 223.517 451.227L208.726 451.228Z" fill="url(#paint81_linear_866_2312)"/>
<rect x="87" y="550" width="165.33" height="165.33" rx="15" fill="url(#paint82_linear_866_2312)" stroke="url(#paint83_linear_866_2312)" stroke-width="2"/>
<path d="M114 586V679.922H224.997V586H114ZM216.459 671.384H122.538V603.077H216.459V671.384Z" fill="url(#paint84_linear_866_2312)"/>
<path d="M160.621 644.433H190.022V653.063H160.621V644.433Z" fill="url(#paint85_linear_866_2312)"/>
<path d="M131.228 644.432L160.605 632.761V632.736L160.62 632.743V623.473L160.605 623.479V623.455L131.228 611.784L131.221 621.068L148.949 628.108L131.221 635.15L131.228 644.432Z" fill="url(#paint86_linear_866_2312)"/>
<rect x="271" y="483" width="298.651" height="298.651" rx="32" fill="url(#paint87_linear_866_2312)"/>
<g clip-path="url(#clip0_866_2312)">
<path d="M419.885 739.769C479.468 739.769 527.77 691.467 527.77 631.884C527.77 572.301 479.468 523.999 419.885 523.999C360.302 523.999 312 572.301 312 631.884C312 691.467 360.302 739.769 419.885 739.769Z" fill="url(#paint88_linear_866_2312)"/>
<path d="M419.885 739.769C479.468 739.769 527.77 691.467 527.77 631.884C527.77 572.301 479.468 523.999 419.885 523.999C360.302 523.999 312 572.301 312 631.884C312 691.467 360.302 739.769 419.885 739.769Z" fill="url(#paint89_linear_866_2312)"/>
<path d="M464.238 588.73H449.853V675.038H464.238V588.73Z" fill="url(#paint90_linear_866_2312)"/>
<path d="M491.219 712.821L394.882 588.729H376.731V675.002H391.252V607.17L479.82 721.602C483.816 718.928 487.624 715.992 491.219 712.821Z" fill="url(#paint91_linear_866_2312)"/>
</g>
<rect x="1418" y="349" width="165.33" height="165.33" rx="15" transform="rotate(-90 1418 349)" fill="url(#paint92_linear_866_2312)" stroke="url(#paint93_linear_866_2312)" stroke-width="2"/>
<path d="M1497.54 282.843H1503.46V290.234H1497.54V282.843Z" fill="url(#paint94_linear_866_2312)"/>
<path d="M1450 296.152H1551V317.001H1450V296.152Z" fill="url(#paint95_linear_866_2312)"/>
<path d="M1497.54 242.767H1503.46V250.158H1497.54V242.767Z" fill="url(#paint96_linear_866_2312)"/>
<path d="M1541.28 276.925L1548.47 256.076H1459.72L1452.53 276.925H1541.28Z" fill="url(#paint97_linear_866_2312)"/>
<path d="M1551 226.425C1551 220.677 1546.32 216 1540.58 216H1460.42C1454.68 216 1450 220.677 1450 226.425C1450 232.173 1454.68 236.849 1460.42 236.849H1540.58C1546.32 236.849 1551 232.173 1551 226.425Z" fill="url(#paint98_linear_866_2312)"/>
<rect x="1619" y="850" width="165.33" height="165.33" rx="15" transform="rotate(-90 1619 850)" fill="url(#paint99_linear_866_2312)" stroke="url(#paint100_linear_866_2312)" stroke-width="2"/>
<rect x="844" y="724" width="125.086" height="125.086" rx="15" transform="rotate(180 844 724)" fill="url(#paint101_linear_866_2312)" stroke="url(#paint102_linear_866_2312)" stroke-width="2"/>
<path d="M810.673 648.999V640.673C810.673 631.471 803.21 624.001 794.005 624.001V632.34C798.604 632.34 802.34 636.073 802.34 640.673V648.999C802.34 654.007 804.594 658.45 808.091 661.506C804.594 664.562 802.34 668.997 802.34 674.008V682.341C802.34 686.945 798.604 690.676 794.001 690.676V699.011C803.202 699.011 810.673 691.552 810.673 682.341V674.008C810.673 669.404 814.409 665.673 819.008 665.673V657.334C814.401 657.334 810.673 653.601 810.673 648.999Z" fill="url(#paint103_linear_866_2312)"/>
<path d="M760.674 649.004V640.669C760.674 636.065 764.409 632.334 769.012 632.334V624C759.807 624 752.339 631.46 752.339 640.669L752.335 649.004C752.335 653.607 748.604 657.337 744 657.337V665.672L744.003 665.676C748.607 665.676 752.339 669.407 752.339 674.011V682.337C752.339 691.538 759.798 699.011 769.007 699.011V690.672C764.403 690.672 760.674 686.941 760.674 682.337V674.011C760.674 669.002 758.418 664.56 754.922 661.505C758.418 658.449 760.674 654.011 760.674 649.004Z" fill="url(#paint104_linear_866_2312)"/>
<rect x="1047.1" y="783.753" width="184.392" height="184.392" rx="15" transform="rotate(180 1047.1 783.753)" fill="url(#paint105_linear_866_2312)" stroke="url(#paint106_linear_866_2312)" stroke-width="2"/>
<path d="M895 677.899H917.712V705.28H895V677.899Z" fill="url(#paint107_linear_866_2312)"/>
<path d="M927.276 677.899H982.259V705.28H927.276V677.899Z" fill="url(#paint108_linear_866_2312)"/>
<path d="M895 640.999H949.988V668.38H895V640.999Z" fill="url(#paint109_linear_866_2312)"/>
<rect x="1271" y="783.999" width="204.514" height="204.514" rx="15" transform="rotate(180 1271 783.999)" fill="url(#paint110_linear_866_2312)" stroke="url(#paint111_linear_866_2312)" stroke-width="2"/>
<path d="M1220.24 638.689C1220.24 651.773 1196.9 662.38 1168.12 662.38C1139.33 662.38 1116 651.773 1116 638.689C1116 625.606 1139.33 614.999 1168.12 614.999C1196.9 614.999 1220.24 625.606 1220.24 638.689Z" fill="url(#paint112_linear_866_2312)"/>
<path d="M1116 657.501V690.269C1124.42 698.284 1143.51 705.022 1168.12 705.022C1192.72 705.022 1211.81 698.284 1220.24 690.268V657.5C1208.53 667.259 1187.83 671.855 1168.12 671.855C1148.41 671.855 1127.7 667.259 1116 657.5V657.501Z" fill="url(#paint113_linear_866_2312)"/>
<rect x="1086" y="552" width="184.392" height="184.392" rx="15" transform="rotate(-90 1086 552)" fill="url(#paint114_linear_866_2312)" stroke="url(#paint115_linear_866_2312)" stroke-width="2"/>
<path d="M1193.18 482.526H1163.64V471.294C1153.53 470.845 1142.3 469.834 1131.85 468.261V507.461H1224.74V468.261C1214.41 469.834 1203.17 470.844 1193.07 471.181V482.525L1193.18 482.526Z" fill="url(#paint116_linear_866_2312)"/>
<path d="M1200.93 432.432V413H1155.78V432.431L1125 432.432V459.164C1134.66 461.185 1147.58 462.983 1163.64 463.656V453.098H1193.07V463.656C1209.13 462.982 1222.04 461.297 1231.59 459.164L1231.59 432.432L1200.93 432.432ZM1166.56 423.895H1190.15V432.544H1166.56V423.895Z" fill="url(#paint117_linear_866_2312)"/>
<path d="M1171.28 460.736H1185.54V475.001H1171.28V460.736Z" fill="url(#paint118_linear_866_2312)"/>
<defs>
<linearGradient id="paint0_linear_866_2312" x1="96.2686" y1="32.9995" x2="96.2686" y2="382.21" gradientUnits="userSpaceOnUse">
<stop stop-color="#EDF1E4"/>
<stop offset="1" stop-color="#D7CEA5"/>
</linearGradient>
<linearGradient id="paint1_linear_866_2312" x1="96.1256" y1="81.9995" x2="96.1256" y2="297.765" gradientUnits="userSpaceOnUse">
<stop stop-color="#003229"/>
<stop offset="1" stop-color="#00201A"/>
</linearGradient>
<linearGradient id="paint2_linear_866_2312" x1="135.009" y1="97.8779" x2="135.009" y2="281.256" gradientUnits="userSpaceOnUse">
<stop stop-color="#00755F"/>
<stop offset="1" stop-color="#00201A"/>
</linearGradient>
<linearGradient id="paint3_linear_866_2312" x1="68.4087" y1="169.903" x2="68.4087" y2="196.346" gradientUnits="userSpaceOnUse">
<stop stop-color="#EDF1E4"/>
<stop offset="1" stop-color="#D7CEA5"/>
</linearGradient>
<linearGradient id="paint4_linear_866_2312" x1="66.2638" y1="121.695" x2="66.2638" y2="148.139" gradientUnits="userSpaceOnUse">
<stop stop-color="#EDF1E4"/>
<stop offset="1" stop-color="#D7CEA5"/>
</linearGradient>
<linearGradient id="paint5_linear_866_2312" x1="70.0082" y1="205.629" x2="70.0082" y2="262.185" gradientUnits="userSpaceOnUse">
<stop stop-color="#EDF1E4"/>
<stop offset="1" stop-color="#D7CEA5"/>
</linearGradient>
<linearGradient id="paint6_linear_866_2312" x1="125.875" y1="121.695" x2="125.875" y2="271.425" gradientUnits="userSpaceOnUse">
<stop stop-color="#EDF1E4"/>
<stop offset="1" stop-color="#D7CEA5"/>
</linearGradient>
<linearGradient id="paint7_linear_866_2312" x1="-87.7314" y1="364" x2="-87.7314" y2="713.211" gradientUnits="userSpaceOnUse">
<stop stop-color="#EDF1E4"/>
<stop offset="1" stop-color="#D7CEA5"/>
</linearGradient>
<linearGradient id="paint8_linear_866_2312" x1="-87.86" y1="414" x2="-87.86" y2="629.77" gradientUnits="userSpaceOnUse">
<stop stop-color="#003229"/>
<stop offset="1" stop-color="#00201A"/>
</linearGradient>
<linearGradient id="paint9_linear_866_2312" x1="659.604" y1="103.999" x2="659.604" y2="250.147" gradientUnits="userSpaceOnUse">
<stop stop-color="#001B16"/>
<stop offset="0.755208" stop-color="#001B16" stop-opacity="0"/>
</linearGradient>
<linearGradient id="paint10_linear_866_2312" x1="659.604" y1="-44.5858" x2="659.604" y2="296.427" gradientUnits="userSpaceOnUse">
<stop stop-color="#EDF1E4"/>
<stop offset="1" stop-color="#EDF1E4" stop-opacity="0"/>
</linearGradient>
<linearGradient id="paint11_linear_866_2312" x1="826.227" y1="103.787" x2="826.227" y2="249.935" gradientUnits="userSpaceOnUse">
<stop stop-color="#001B16"/>
<stop offset="0.755208" stop-color="#001B16" stop-opacity="0"/>
</linearGradient>
<linearGradient id="paint12_linear_866_2312" x1="826.227" y1="-44.7978" x2="826.227" y2="296.216" gradientUnits="userSpaceOnUse">
<stop stop-color="#EDF1E4"/>
<stop offset="1" stop-color="#EDF1E4" stop-opacity="0"/>
</linearGradient>
<linearGradient id="paint13_linear_866_2312" x1="825.5" y1="135.999" x2="825.5" y2="228.148" gradientUnits="userSpaceOnUse">
<stop stop-color="#EDF1E4"/>
<stop offset="1" stop-color="#D7CEA5"/>
</linearGradient>
<linearGradient id="paint14_linear_866_2312" x1="992.497" y1="103.787" x2="992.497" y2="249.935" gradientUnits="userSpaceOnUse">
<stop stop-color="#001B16"/>
<stop offset="0.755208" stop-color="#001B16" stop-opacity="0"/>
</linearGradient>
<linearGradient id="paint15_linear_866_2312" x1="992.497" y1="-44.7978" x2="992.497" y2="296.216" gradientUnits="userSpaceOnUse">
<stop stop-color="#EDF1E4"/>
<stop offset="1" stop-color="#EDF1E4" stop-opacity="0"/>
</linearGradient>
<linearGradient id="paint16_linear_866_2312" x1="964.5" y1="143.999" x2="964.5" y2="217.274" gradientUnits="userSpaceOnUse">
<stop stop-color="#EDF1E4"/>
<stop offset="1" stop-color="#D7CEA5"/>
</linearGradient>
<linearGradient id="paint17_linear_866_2312" x1="1019.5" y1="143.999" x2="1019.5" y2="217.274" gradientUnits="userSpaceOnUse">
<stop stop-color="#EDF1E4"/>
<stop offset="1" stop-color="#D7CEA5"/>
</linearGradient>
<linearGradient id="paint18_linear_866_2312" x1="493.156" y1="123.909" x2="493.156" y2="276.412" gradientUnits="userSpaceOnUse">
<stop stop-color="#001B16"/>
<stop offset="0.755208" stop-color="#001B16" stop-opacity="0"/>
</linearGradient>
<linearGradient id="paint19_linear_866_2312" x1="493.156" y1="-31.1359" x2="493.156" y2="324.704" gradientUnits="userSpaceOnUse">
<stop stop-color="#EDF1E4"/>
<stop offset="1" stop-color="#EDF1E4" stop-opacity="0"/>
</linearGradient>
<linearGradient id="paint20_linear_866_2312" x1="516.305" y1="206.818" x2="516.305" y2="243.423" gradientUnits="userSpaceOnUse">
<stop stop-color="#EDF1E4"/>
<stop offset="1" stop-color="#D7CEA5"/>
</linearGradient>
<linearGradient id="paint21_linear_866_2312" x1="484.584" y1="160.999" x2="484.584" y2="228.832" gradientUnits="userSpaceOnUse">
<stop stop-color="#EDF1E4"/>
<stop offset="1" stop-color="#D7CEA5"/>
</linearGradient>
<linearGradient id="paint22_linear_866_2312" x1="659.5" y1="133.999" x2="659.5" y2="228.369" gradientUnits="userSpaceOnUse">
<stop stop-color="#EDF1E4"/>
<stop offset="1" stop-color="#D7CEA5"/>
</linearGradient>
<linearGradient id="paint23_linear_866_2312" x1="1058.27" y1="582" x2="1058.27" y2="931.21" gradientUnits="userSpaceOnUse">
<stop stop-color="#EDF1E4"/>
<stop offset="1" stop-color="#D7CEA5"/>
</linearGradient>
<linearGradient id="paint24_linear_866_2312" x1="743.885" y1="316" x2="743.885" y2="531.77" gradientUnits="userSpaceOnUse">
<stop stop-color="#003229"/>
<stop offset="1" stop-color="#00201A"/>
</linearGradient>
<linearGradient id="paint25_linear_866_2312" x1="723.077" y1="415.06" x2="723.077" y2="525.851" gradientUnits="userSpaceOnUse">
<stop stop-color="#EDF1E4"/>
<stop offset="1" stop-color="#D7CEA5"/>
</linearGradient>
<linearGradient id="paint26_linear_866_2312" x1="799.702" y1="413.9" x2="799.702" y2="525.981" gradientUnits="userSpaceOnUse">
<stop stop-color="#EDF1E4"/>
<stop offset="1" stop-color="#D7CEA5"/>
</linearGradient>
<linearGradient id="paint27_linear_866_2312" x1="1242.27" y1="351" x2="1242.27" y2="700.211" gradientUnits="userSpaceOnUse">
<stop stop-color="#EDF1E4"/>
<stop offset="1" stop-color="#D7CEA5"/>
</linearGradient>
<linearGradient id="paint28_linear_866_2312" x1="1242.26" y1="85" x2="1242.26" y2="300.77" gradientUnits="userSpaceOnUse">
<stop stop-color="#003229"/>
<stop offset="1" stop-color="#00201A"/>
</linearGradient>
<linearGradient id="paint29_linear_866_2312" x1="1757.27" y1="540.999" x2="1757.27" y2="890.21" gradientUnits="userSpaceOnUse">
<stop stop-color="#EDF1E4"/>
<stop offset="1" stop-color="#D7CEA5"/>
</linearGradient>
<linearGradient id="paint30_linear_866_2312" x1="1757.74" y1="275" x2="1757.74" y2="490.77" gradientUnits="userSpaceOnUse">
<stop stop-color="#003229"/>
<stop offset="1" stop-color="#00201A"/>
</linearGradient>
<linearGradient id="paint31_linear_866_2312" x1="1446.27" y1="844.999" x2="1446.27" y2="1194.21" gradientUnits="userSpaceOnUse">
<stop stop-color="#EDF1E4"/>
<stop offset="1" stop-color="#D7CEA5"/>
</linearGradient>
<linearGradient id="paint32_linear_866_2312" x1="1445.9" y1="619.999" x2="1445.9" y2="755.999" gradientUnits="userSpaceOnUse">
<stop stop-color="#003229"/>
<stop offset="1" stop-color="#00201A"/>
</linearGradient>
<linearGradient id="paint33_linear_866_2312" x1="757.918" y1="712.738" x2="757.918" y2="827.115" gradientUnits="userSpaceOnUse">
<stop stop-color="#001B16"/>
<stop offset="0.755208" stop-color="#001B16" stop-opacity="0"/>
</linearGradient>
<linearGradient id="paint34_linear_866_2312" x1="757.918" y1="596.455" x2="757.918" y2="863.335" gradientUnits="userSpaceOnUse">
<stop stop-color="#EDF1E4"/>
<stop offset="1" stop-color="#EDF1E4" stop-opacity="0"/>
</linearGradient>
<linearGradient id="paint35_linear_866_2312" x1="644" y1="626" x2="644" y2="693.725" gradientUnits="userSpaceOnUse">
<stop stop-color="#EDF1E4"/>
<stop offset="1" stop-color="#D7CEA5"/>
</linearGradient>
<linearGradient id="paint36_linear_866_2312" x1="335.358" y1="88.96" x2="335.358" y2="218.164" gradientUnits="userSpaceOnUse">
<stop stop-color="#001B16"/>
<stop offset="0.755208" stop-color="#001B16" stop-opacity="0"/>
</linearGradient>
<linearGradient id="paint37_linear_866_2312" x1="335.358" y1="-42.3972" x2="335.358" y2="259.078" gradientUnits="userSpaceOnUse">
<stop stop-color="#EDF1E4"/>
<stop offset="1" stop-color="#EDF1E4" stop-opacity="0"/>
</linearGradient>
<linearGradient id="paint38_linear_866_2312" x1="332.072" y1="113" x2="332.072" y2="150.17" gradientUnits="userSpaceOnUse">
<stop stop-color="#EDF1E4"/>
<stop offset="1" stop-color="#D7CEA5"/>
</linearGradient>
<linearGradient id="paint39_linear_866_2312" x1="337.277" y1="161.317" x2="337.277" y2="198.525" gradientUnits="userSpaceOnUse">
<stop stop-color="#EDF1E4"/>
<stop offset="1" stop-color="#D7CEA5"/>
</linearGradient>
<linearGradient id="paint40_linear_866_2312" x1="656.312" y1="466" x2="656.312" y2="638.625" gradientUnits="userSpaceOnUse">
<stop stop-color="#001B16"/>
<stop offset="0.755208" stop-color="#001B16" stop-opacity="0"/>
</linearGradient>
<linearGradient id="paint41_linear_866_2312" x1="656.312" y1="290.499" x2="656.312" y2="693.29" gradientUnits="userSpaceOnUse">
<stop stop-color="#EDF1E4"/>
<stop offset="1" stop-color="#EDF1E4" stop-opacity="0"/>
</linearGradient>
<linearGradient id="paint42_linear_866_2312" x1="483.5" y1="326" x2="483.5" y2="444.796" gradientUnits="userSpaceOnUse">
<stop stop-color="#EDF1E4"/>
<stop offset="1" stop-color="#D7CEA5"/>
</linearGradient>
<linearGradient id="paint43_linear_866_2312" x1="325.541" y1="235" x2="325.541" y2="344.082" gradientUnits="userSpaceOnUse">
<stop stop-color="#001B16"/>
<stop offset="0.755208" stop-color="#001B16" stop-opacity="0"/>
</linearGradient>
<linearGradient id="paint44_linear_866_2312" x1="325.541" y1="124.1" x2="325.541" y2="378.625" gradientUnits="userSpaceOnUse">
<stop stop-color="#EDF1E4"/>
<stop offset="1" stop-color="#EDF1E4" stop-opacity="0"/>
</linearGradient>
<linearGradient id="paint45_linear_866_2312" x1="325.5" y1="260" x2="325.5" y2="325.504" gradientUnits="userSpaceOnUse">
<stop stop-color="#EDF1E4"/>
<stop offset="1" stop-color="#D7CEA5"/>
</linearGradient>
<linearGradient id="paint46_linear_866_2312" x1="1658.07" y1="208" x2="1658.07" y2="317.082" gradientUnits="userSpaceOnUse">
<stop stop-color="#001B16"/>
<stop offset="0.755208" stop-color="#001B16" stop-opacity="0"/>
</linearGradient>
<linearGradient id="paint47_linear_866_2312" x1="1658.07" y1="97.1005" x2="1658.07" y2="351.625" gradientUnits="userSpaceOnUse">
<stop stop-color="#EDF1E4"/>
<stop offset="1" stop-color="#EDF1E4" stop-opacity="0"/>
</linearGradient>
<linearGradient id="paint48_linear_866_2312" x1="1657.5" y1="117" x2="1657.5" y2="196.937" gradientUnits="userSpaceOnUse">
<stop stop-color="#EDF1E4"/>
<stop offset="1" stop-color="#D7CEA5"/>
</linearGradient>
<linearGradient id="paint49_linear_866_2312" x1="1784.07" y1="208" x2="1784.07" y2="317.082" gradientUnits="userSpaceOnUse">
<stop stop-color="#001B16"/>
<stop offset="0.755208" stop-color="#001B16" stop-opacity="0"/>
</linearGradient>
<linearGradient id="paint50_linear_866_2312" x1="1784.07" y1="97.1005" x2="1784.07" y2="351.625" gradientUnits="userSpaceOnUse">
<stop stop-color="#EDF1E4"/>
<stop offset="1" stop-color="#EDF1E4" stop-opacity="0"/>
</linearGradient>
<linearGradient id="paint51_linear_866_2312" x1="1512.54" y1="512" x2="1512.54" y2="657.09" gradientUnits="userSpaceOnUse">
<stop stop-color="#001B16"/>
<stop offset="0.755208" stop-color="#001B16" stop-opacity="0"/>
</linearGradient>
<linearGradient id="paint52_linear_866_2312" x1="1512.54" y1="364.493" x2="1512.54" y2="703.035" gradientUnits="userSpaceOnUse">
<stop stop-color="#EDF1E4"/>
<stop offset="1" stop-color="#EDF1E4" stop-opacity="0"/>
</linearGradient>
<linearGradient id="paint53_linear_866_2312" x1="1512.5" y1="397" x2="1512.5" y2="492.481" gradientUnits="userSpaceOnUse">
<stop stop-color="#EDF1E4"/>
<stop offset="1" stop-color="#D7CEA5"/>
</linearGradient>
<linearGradient id="paint54_linear_866_2312" x1="325.541" y1="357" x2="325.541" y2="466.082" gradientUnits="userSpaceOnUse">
<stop stop-color="#001B16"/>
<stop offset="0.755208" stop-color="#001B16" stop-opacity="0"/>
</linearGradient>
<linearGradient id="paint55_linear_866_2312" x1="325.541" y1="246.1" x2="325.541" y2="500.625" gradientUnits="userSpaceOnUse">
<stop stop-color="#EDF1E4"/>
<stop offset="1" stop-color="#EDF1E4" stop-opacity="0"/>
</linearGradient>
<linearGradient id="paint56_linear_866_2312" x1="325" y1="382" x2="325" y2="447.504" gradientUnits="userSpaceOnUse">
<stop stop-color="#EDF1E4"/>
<stop offset="1" stop-color="#D7CEA5"/>
</linearGradient>
<linearGradient id="paint57_linear_866_2312" x1="1499.78" y1="166.271" x2="1499.78" y2="333.6" gradientUnits="userSpaceOnUse">
<stop stop-color="#001B16"/>
<stop offset="0.755208" stop-color="#001B16" stop-opacity="0"/>
</linearGradient>
<linearGradient id="paint58_linear_866_2312" x1="1499.78" y1="-3.84787" x2="1499.78" y2="386.588" gradientUnits="userSpaceOnUse">
<stop stop-color="#EDF1E4"/>
<stop offset="1" stop-color="#EDF1E4" stop-opacity="0"/>
</linearGradient>
<linearGradient id="paint59_linear_866_2312" x1="1465.1" y1="72.1807" x2="1465.1" y2="95.3721" gradientUnits="userSpaceOnUse">
<stop stop-color="#EDF1E4"/>
<stop offset="1" stop-color="#D7CEA5"/>
</linearGradient>
<linearGradient id="paint60_linear_866_2312" x1="1500.96" y1="45.0005" x2="1500.96" y2="68.1919" gradientUnits="userSpaceOnUse">
<stop stop-color="#EDF1E4"/>
<stop offset="1" stop-color="#D7CEA5"/>
</linearGradient>
<linearGradient id="paint61_linear_866_2312" x1="1465.1" y1="45.0005" x2="1465.1" y2="68.1919" gradientUnits="userSpaceOnUse">
<stop stop-color="#EDF1E4"/>
<stop offset="1" stop-color="#D7CEA5"/>
</linearGradient>
<linearGradient id="paint62_linear_866_2312" x1="1465.1" y1="99.2349" x2="1465.1" y2="122.845" gradientUnits="userSpaceOnUse">
<stop stop-color="#EDF1E4"/>
<stop offset="1" stop-color="#D7CEA5"/>
</linearGradient>
<linearGradient id="paint63_linear_866_2312" x1="1536.2" y1="45.0005" x2="1536.2" y2="68.1919" gradientUnits="userSpaceOnUse">
<stop stop-color="#EDF1E4"/>
<stop offset="1" stop-color="#D7CEA5"/>
</linearGradient>
<linearGradient id="paint64_linear_866_2312" x1="1518.58" y1="72.1807" x2="1518.58" y2="125.828" gradientUnits="userSpaceOnUse">
<stop stop-color="#EDF1E4"/>
<stop offset="1" stop-color="#D7CEA5"/>
</linearGradient>
<linearGradient id="paint65_linear_866_2312" x1="1672.41" y1="666.14" x2="1672.41" y2="775.222" gradientUnits="userSpaceOnUse">
<stop stop-color="#001B16"/>
<stop offset="0.755208" stop-color="#001B16" stop-opacity="0"/>
</linearGradient>
<linearGradient id="paint66_linear_866_2312" x1="1672.41" y1="555.24" x2="1672.41" y2="809.765" gradientUnits="userSpaceOnUse">
<stop stop-color="#EDF1E4"/>
<stop offset="1" stop-color="#EDF1E4" stop-opacity="0"/>
</linearGradient>
<linearGradient id="paint67_linear_866_2312" x1="1671.5" y1="586" x2="1671.5" y2="644.843" gradientUnits="userSpaceOnUse">
<stop stop-color="#EDF1E4"/>
<stop offset="1" stop-color="#D7CEA5"/>
</linearGradient>
<linearGradient id="paint68_linear_866_2312" x1="1141.66" y1="580.998" x2="1141.66" y2="729.265" gradientUnits="userSpaceOnUse">
<stop stop-color="#001B16"/>
<stop offset="0.755208" stop-color="#001B16" stop-opacity="0"/>
</linearGradient>
<linearGradient id="paint69_linear_866_2312" x1="1141.66" y1="430.26" x2="1141.66" y2="776.216" gradientUnits="userSpaceOnUse">
<stop stop-color="#EDF1E4"/>
<stop offset="1" stop-color="#EDF1E4" stop-opacity="0"/>
</linearGradient>
<linearGradient id="paint70_linear_866_2312" x1="992.5" y1="463.999" x2="992.5" y2="558.369" gradientUnits="userSpaceOnUse">
<stop stop-color="#EDF1E4"/>
<stop offset="1" stop-color="#D7CEA5"/>
</linearGradient>
<linearGradient id="paint71_linear_866_2312" x1="1141.66" y1="415.146" x2="1141.66" y2="563.413" gradientUnits="userSpaceOnUse">
<stop stop-color="#001B16"/>
<stop offset="0.755208" stop-color="#001B16" stop-opacity="0"/>
</linearGradient>
<linearGradient id="paint72_linear_866_2312" x1="1141.66" y1="264.409" x2="1141.66" y2="610.364" gradientUnits="userSpaceOnUse">
<stop stop-color="#EDF1E4"/>
<stop offset="1" stop-color="#EDF1E4" stop-opacity="0"/>
</linearGradient>
<linearGradient id="paint73_linear_866_2312" x1="991.5" y1="297" x2="991.5" y2="345.874" gradientUnits="userSpaceOnUse">
<stop stop-color="#EDF1E4"/>
<stop offset="1" stop-color="#D7CEA5"/>
</linearGradient>
<linearGradient id="paint74_linear_866_2312" x1="991.5" y1="335.28" x2="991.5" y2="367.154" gradientUnits="userSpaceOnUse">
<stop stop-color="#EDF1E4"/>
<stop offset="1" stop-color="#D7CEA5"/>
</linearGradient>
<linearGradient id="paint75_linear_866_2312" x1="991.5" y1="357.291" x2="991.5" y2="389.165" gradientUnits="userSpaceOnUse">
<stop stop-color="#EDF1E4"/>
<stop offset="1" stop-color="#D7CEA5"/>
</linearGradient>
<linearGradient id="paint76_linear_866_2312" x1="1356.25" y1="501" x2="1356.25" y2="635.5" gradientUnits="userSpaceOnUse">
<stop stop-color="#001B16"/>
<stop offset="0.755208" stop-color="#001B16" stop-opacity="0"/>
</linearGradient>
<linearGradient id="paint77_linear_866_2312" x1="1356.25" y1="364.26" x2="1356.25" y2="678.091" gradientUnits="userSpaceOnUse">
<stop stop-color="#EDF1E4"/>
<stop offset="1" stop-color="#EDF1E4" stop-opacity="0"/>
</linearGradient>
<linearGradient id="paint78_linear_866_2312" x1="1356" y1="411" x2="1356" y2="463.277" gradientUnits="userSpaceOnUse">
<stop stop-color="#EDF1E4"/>
<stop offset="1" stop-color="#D7CEA5"/>
</linearGradient>
<linearGradient id="paint79_linear_866_2312" x1="169.665" y1="364" x2="169.665" y2="531.33" gradientUnits="userSpaceOnUse">
<stop stop-color="#001B16"/>
<stop offset="0.755208" stop-color="#001B16" stop-opacity="0"/>
</linearGradient>
<linearGradient id="paint80_linear_866_2312" x1="169.665" y1="193.882" x2="169.665" y2="584.318" gradientUnits="userSpaceOnUse">
<stop stop-color="#EDF1E4"/>
<stop offset="1" stop-color="#EDF1E4" stop-opacity="0"/>
</linearGradient>
<linearGradient id="paint81_linear_866_2312" x1="169.5" y1="403" x2="169.5" y2="502.922" gradientUnits="userSpaceOnUse">
<stop stop-color="#EDF1E4"/>
<stop offset="1" stop-color="#D7CEA5"/>
</linearGradient>
<linearGradient id="paint82_linear_866_2312" x1="169.665" y1="549" x2="169.665" y2="716.33" gradientUnits="userSpaceOnUse">
<stop stop-color="#001B16"/>
<stop offset="0.755208" stop-color="#001B16" stop-opacity="0"/>
</linearGradient>
<linearGradient id="paint83_linear_866_2312" x1="169.665" y1="378.882" x2="169.665" y2="769.318" gradientUnits="userSpaceOnUse">
<stop stop-color="#EDF1E4"/>
<stop offset="1" stop-color="#EDF1E4" stop-opacity="0"/>
</linearGradient>
<linearGradient id="paint84_linear_866_2312" x1="169.498" y1="586" x2="169.498" y2="690.276" gradientUnits="userSpaceOnUse">
<stop stop-color="#EDF1E4"/>
<stop offset="1" stop-color="#D7CEA5"/>
</linearGradient>
<linearGradient id="paint85_linear_866_2312" x1="175.321" y1="644.433" x2="175.321" y2="654.014" gradientUnits="userSpaceOnUse">
<stop stop-color="#EDF1E4"/>
<stop offset="1" stop-color="#D7CEA5"/>
</linearGradient>
<linearGradient id="paint86_linear_866_2312" x1="145.92" y1="611.784" x2="145.92" y2="648.031" gradientUnits="userSpaceOnUse">
<stop stop-color="#EDF1E4"/>
<stop offset="1" stop-color="#D7CEA5"/>
</linearGradient>
<linearGradient id="paint87_linear_866_2312" x1="420.326" y1="483" x2="420.326" y2="814.574" gradientUnits="userSpaceOnUse">
<stop stop-color="#EDF1E4"/>
<stop offset="1" stop-color="#D7CEA5"/>
</linearGradient>
<linearGradient id="paint88_linear_866_2312" x1="419.885" y1="523.999" x2="419.885" y2="739.769" gradientUnits="userSpaceOnUse">
<stop stop-color="#003229"/>
<stop offset="1" stop-color="#00201A"/>
</linearGradient>
<linearGradient id="paint89_linear_866_2312" x1="419.885" y1="523.999" x2="419.885" y2="739.769" gradientUnits="userSpaceOnUse">
<stop stop-color="#003229"/>
<stop offset="1" stop-color="#00201A"/>
</linearGradient>
<linearGradient id="paint90_linear_866_2312" x1="457.045" y1="588.73" x2="457.045" y2="684.552" gradientUnits="userSpaceOnUse">
<stop stop-color="#EDF1E4"/>
<stop offset="1" stop-color="#D7CEA5"/>
</linearGradient>
<linearGradient id="paint91_linear_866_2312" x1="433.975" y1="588.729" x2="433.975" y2="736.249" gradientUnits="userSpaceOnUse">
<stop stop-color="#EDF1E4"/>
<stop offset="1" stop-color="#D7CEA5"/>
</linearGradient>
<linearGradient id="paint92_linear_866_2312" x1="1500.66" y1="350" x2="1500.66" y2="517.33" gradientUnits="userSpaceOnUse">
<stop stop-color="#001B16"/>
<stop offset="0.755208" stop-color="#001B16" stop-opacity="0"/>
</linearGradient>
<linearGradient id="paint93_linear_866_2312" x1="1500.66" y1="179.882" x2="1500.66" y2="570.318" gradientUnits="userSpaceOnUse">
<stop stop-color="#EDF1E4"/>
<stop offset="1" stop-color="#EDF1E4" stop-opacity="0"/>
</linearGradient>
<linearGradient id="paint94_linear_866_2312" x1="1500.5" y1="282.843" x2="1500.5" y2="291.049" gradientUnits="userSpaceOnUse">
<stop stop-color="#EDF1E4"/>
<stop offset="1" stop-color="#D7CEA5"/>
</linearGradient>
<linearGradient id="paint95_linear_866_2312" x1="1500.5" y1="296.152" x2="1500.5" y2="319.299" gradientUnits="userSpaceOnUse">
<stop stop-color="#EDF1E4"/>
<stop offset="1" stop-color="#D7CEA5"/>
</linearGradient>
<linearGradient id="paint96_linear_866_2312" x1="1500.5" y1="242.767" x2="1500.5" y2="250.973" gradientUnits="userSpaceOnUse">
<stop stop-color="#EDF1E4"/>
<stop offset="1" stop-color="#D7CEA5"/>
</linearGradient>
<linearGradient id="paint97_linear_866_2312" x1="1500.5" y1="256.076" x2="1500.5" y2="279.223" gradientUnits="userSpaceOnUse">
<stop stop-color="#EDF1E4"/>
<stop offset="1" stop-color="#D7CEA5"/>
</linearGradient>
<linearGradient id="paint98_linear_866_2312" x1="1500.5" y1="216" x2="1500.5" y2="239.147" gradientUnits="userSpaceOnUse">
<stop stop-color="#EDF1E4"/>
<stop offset="1" stop-color="#D7CEA5"/>
</linearGradient>
<linearGradient id="paint99_linear_866_2312" x1="1701.66" y1="851" x2="1701.66" y2="1018.33" gradientUnits="userSpaceOnUse">
<stop stop-color="#001B16"/>
<stop offset="0.755208" stop-color="#001B16" stop-opacity="0"/>
</linearGradient>
<linearGradient id="paint100_linear_866_2312" x1="1701.66" y1="680.882" x2="1701.66" y2="1071.32" gradientUnits="userSpaceOnUse">
<stop stop-color="#EDF1E4"/>
<stop offset="1" stop-color="#EDF1E4" stop-opacity="0"/>
</linearGradient>
<linearGradient id="paint101_linear_866_2312" x1="908.543" y1="725" x2="908.543" y2="852.086" gradientUnits="userSpaceOnUse">
<stop stop-color="#001B16"/>
<stop offset="0.755208" stop-color="#001B16" stop-opacity="0"/>
</linearGradient>
<linearGradient id="paint102_linear_866_2312" x1="908.543" y1="595.797" x2="908.543" y2="892.33" gradientUnits="userSpaceOnUse">
<stop stop-color="#EDF1E4"/>
<stop offset="1" stop-color="#EDF1E4" stop-opacity="0"/>
</linearGradient>
<linearGradient id="paint103_linear_866_2312" x1="806.505" y1="624.001" x2="806.505" y2="707.28" gradientUnits="userSpaceOnUse">
<stop stop-color="#EDF1E4"/>
<stop offset="1" stop-color="#D7CEA5"/>
</linearGradient>
<linearGradient id="paint104_linear_866_2312" x1="756.506" y1="624" x2="756.506" y2="707.28" gradientUnits="userSpaceOnUse">
<stop stop-color="#EDF1E4"/>
<stop offset="1" stop-color="#D7CEA5"/>
</linearGradient>
<linearGradient id="paint105_linear_866_2312" x1="1141.29" y1="784.753" x2="1141.29" y2="971.146" gradientUnits="userSpaceOnUse">
<stop stop-color="#001B16"/>
<stop offset="0.755208" stop-color="#001B16" stop-opacity="0"/>
</linearGradient>
<linearGradient id="paint106_linear_866_2312" x1="1141.29" y1="595.255" x2="1141.29" y2="1030.17" gradientUnits="userSpaceOnUse">
<stop stop-color="#EDF1E4"/>
<stop offset="1" stop-color="#EDF1E4" stop-opacity="0"/>
</linearGradient>
<linearGradient id="paint107_linear_866_2312" x1="906.356" y1="677.899" x2="906.356" y2="708.298" gradientUnits="userSpaceOnUse">
<stop stop-color="#EDF1E4"/>
<stop offset="1" stop-color="#D7CEA5"/>
</linearGradient>
<linearGradient id="paint108_linear_866_2312" x1="954.767" y1="677.899" x2="954.767" y2="708.298" gradientUnits="userSpaceOnUse">
<stop stop-color="#EDF1E4"/>
<stop offset="1" stop-color="#D7CEA5"/>
</linearGradient>
<linearGradient id="paint109_linear_866_2312" x1="922.494" y1="640.999" x2="922.494" y2="671.398" gradientUnits="userSpaceOnUse">
<stop stop-color="#EDF1E4"/>
<stop offset="1" stop-color="#D7CEA5"/>
</linearGradient>
<linearGradient id="paint110_linear_866_2312" x1="1375.26" y1="784.999" x2="1375.26" y2="991.513" gradientUnits="userSpaceOnUse">
<stop stop-color="#001B16"/>
<stop offset="0.755208" stop-color="#001B16" stop-opacity="0"/>
</linearGradient>
<linearGradient id="paint111_linear_866_2312" x1="1375.26" y1="575.043" x2="1375.26" y2="1056.91" gradientUnits="userSpaceOnUse">
<stop stop-color="#EDF1E4"/>
<stop offset="1" stop-color="#EDF1E4" stop-opacity="0"/>
</linearGradient>
<linearGradient id="paint112_linear_866_2312" x1="1168.12" y1="614.999" x2="1168.12" y2="667.603" gradientUnits="userSpaceOnUse">
<stop stop-color="#EDF1E4"/>
<stop offset="1" stop-color="#D7CEA5"/>
</linearGradient>
<linearGradient id="paint113_linear_866_2312" x1="1168.12" y1="657.5" x2="1168.12" y2="710.261" gradientUnits="userSpaceOnUse">
<stop stop-color="#EDF1E4"/>
<stop offset="1" stop-color="#D7CEA5"/>
</linearGradient>
<linearGradient id="paint114_linear_866_2312" x1="1178.2" y1="553" x2="1178.2" y2="739.392" gradientUnits="userSpaceOnUse">
<stop stop-color="#001B16"/>
<stop offset="0.755208" stop-color="#001B16" stop-opacity="0"/>
</linearGradient>
<linearGradient id="paint115_linear_866_2312" x1="1178.2" y1="363.501" x2="1178.2" y2="798.416" gradientUnits="userSpaceOnUse">
<stop stop-color="#EDF1E4"/>
<stop offset="1" stop-color="#EDF1E4" stop-opacity="0"/>
</linearGradient>
<linearGradient id="paint116_linear_866_2312" x1="1178.3" y1="468.261" x2="1178.3" y2="511.782" gradientUnits="userSpaceOnUse">
<stop stop-color="#EDF1E4"/>
<stop offset="1" stop-color="#D7CEA5"/>
</linearGradient>
<linearGradient id="paint117_linear_866_2312" x1="1178.3" y1="413" x2="1178.3" y2="469.24" gradientUnits="userSpaceOnUse">
<stop stop-color="#EDF1E4"/>
<stop offset="1" stop-color="#D7CEA5"/>
</linearGradient>
<linearGradient id="paint118_linear_866_2312" x1="1178.41" y1="460.736" x2="1178.41" y2="476.574" gradientUnits="userSpaceOnUse">
<stop stop-color="#EDF1E4"/>
<stop offset="1" stop-color="#D7CEA5"/>
</linearGradient>
<clipPath id="clip0_866_2312">
<rect width="215.77" height="215.77" fill="white" transform="translate(312 523.999)"/>
</clipPath>
</defs>
</svg>
