<svg width="254" height="254" viewBox="0 0 254 254" fill="none" xmlns="http://www.w3.org/2000/svg">
<path d="M249.296 143.931C245.065 133.492 245.065 121.923 249.296 111.766L250.707 108.38C259.735 86.9363 249.296 62.1068 227.856 53.0779L224.752 51.6672C214.314 47.4349 206.133 39.2524 201.901 28.8128L200.773 25.9913C191.463 4.54763 166.919 -5.60988 145.196 3.13686L142.375 4.26547C131.937 8.49777 120.37 8.49777 109.932 4.26547L107.393 3.13686C86.2346 -5.60988 61.4086 4.82978 52.3809 26.2734L51.2525 28.5306C47.0208 38.9703 38.8395 47.1527 28.4013 51.385L25.8622 52.5136C4.7037 61.5425 -5.73451 86.372 3.29313 107.816L4.42159 110.355C8.65329 120.795 8.65329 132.363 4.42159 142.52L3.29313 145.624C-5.73451 167.068 4.42159 191.897 26.1443 200.644L28.9655 201.773C39.4037 206.005 47.585 214.187 51.8167 224.627L53.2273 227.731C61.9728 249.456 86.7988 259.614 108.239 250.867L111.343 249.456C121.781 245.224 133.348 245.224 143.786 249.456L146.325 250.585C167.765 259.614 192.591 249.174 201.619 227.731L202.748 225.473C206.979 215.034 215.161 206.851 225.599 202.619L227.856 201.773C249.578 192.744 259.735 168.196 250.707 146.471L249.296 143.931ZM115.01 182.022L59.998 135.749L76.9248 115.716L111.907 145.342L173.69 71.9822L193.72 88.9114L115.01 182.022Z" fill="url(#paint0_linear_11_163)"/>
<defs>
<linearGradient id="paint0_linear_11_163" x1="127" y1="0" x2="127" y2="282" gradientUnits="userSpaceOnUse">
<stop stop-color="#EDF1E4"/>
<stop offset="1" stop-color="#D7CEA5"/>
</linearGradient>
</defs>
</svg>
